if (_typeface_js && _typeface_js.loadFace) _typeface_js.loadFace({"glyphs":{"¦":{"x_min":322,"x_max":372,"ha":694,"o":"m 322 277 l 372 277 l 372 -237 l 322 -237 l 322 277 m 322 971 l 372 971 l 372 457 l 322 457 l 322 971 "},"Ž":{"x_min":-24,"x_max":763,"ha":734,"o":"m -24 0 l -12 52 l 706 956 l 155 956 l 163 999 l 763 999 l 752 942 l 35 43 l 630 43 l 622 0 l -24 0 m 352 1318 l 389 1318 l 487 1137 l 652 1318 l 694 1318 l 512 1096 l 459 1096 l 352 1318 "},"Á":{"x_min":-86,"x_max":712,"ha":787,"o":"m 180 375 l 602 375 l 504 937 l 180 375 m -86 0 l 492 999 l 539 999 l 712 0 l 667 0 l 608 330 l 155 330 l -35 0 l -86 0 m 501 1096 l 460 1096 l 625 1318 l 685 1318 l 501 1096 "},"Î":{"x_min":16,"x_max":438,"ha":290,"o":"m 16 0 l 228 999 l 276 999 l 62 0 l 16 0 m 438 1096 l 400 1096 l 302 1276 l 137 1096 l 95 1096 l 278 1318 l 331 1318 l 438 1096 "},"e":{"x_min":32,"x_max":653,"ha":739,"o":"m 82 360 q 79 317 80 338 q 78 271 78 296 q 136 90 78 160 q 289 21 195 21 q 453 75 380 21 q 565 226 527 129 l 612 226 q 486 47 571 113 q 295 -18 401 -18 q 103 61 174 -18 q 32 279 32 141 q 134 603 32 472 q 391 734 237 734 q 583 654 514 734 q 653 431 653 574 q 651 396 653 414 q 649 360 650 379 l 82 360 m 91 399 l 608 399 q 609 414 608 403 q 610 429 610 424 q 551 626 610 557 q 383 695 492 695 q 202 614 282 695 q 91 399 122 534 "},"»":{"x_min":11,"x_max":430,"ha":514,"o":"m 286 571 l 430 364 l 239 146 l 181 146 l 374 364 l 235 571 l 286 571 m 115 571 l 260 364 l 69 146 l 11 146 l 204 364 l 65 571 l 115 571 "},"∆":{"x_min":-8,"x_max":892,"ha":884,"o":"m 441 961 l 75 58 l 808 58 l 441 961 m 402 999 l 480 999 l 892 0 l -8 0 l 402 999 "},"ò":{"x_min":22,"x_max":662,"ha":749,"o":"m 383 695 q 160 574 254 695 q 67 283 67 453 q 127 92 67 164 q 285 21 187 21 q 521 140 426 21 q 616 440 616 260 q 555 628 616 561 q 383 695 494 695 m 22 280 q 128 603 22 473 q 394 734 234 734 q 590 655 518 734 q 662 441 662 577 q 555 111 662 240 q 283 -18 448 -18 q 94 63 166 -18 q 22 280 22 145 m 496 811 l 458 811 l 284 1033 l 343 1033 l 496 811 "},"^":{"x_min":289,"x_max":1099,"ha":1389,"o":"m 660 987 l 726 987 l 1099 612 l 1025 612 l 694 939 l 362 612 l 289 612 l 660 987 "},"«":{"x_min":20,"x_max":441,"ha":514,"o":"m 335 146 l 192 354 l 382 571 l 441 571 l 246 354 l 386 146 l 335 146 m 163 146 l 20 354 l 210 571 l 269 571 l 75 354 l 214 146 l 163 146 "},"∙":{"x_min":135,"x_max":227,"ha":361,"o":"m 180 427 q 148 439 161 427 q 135 470 135 452 q 148 503 135 489 q 180 517 162 517 q 213 503 199 517 q 227 470 227 489 q 213 439 227 452 q 180 427 199 427 "},"í":{"x_min":-8,"x_max":349,"ha":243,"o":"m -8 0 l 144 721 l 189 721 l 34 0 l -8 0 m 165 811 l 124 811 l 289 1033 l 349 1033 l 165 811 "},"ˆ":{"x_min":244,"x_max":587,"ha":694,"o":"m 587 811 l 549 811 l 451 991 l 286 811 l 244 811 l 427 1033 l 480 1033 l 587 811 "},"µ":{"x_min":-78,"x_max":650,"ha":705,"o":"m 136 717 l 181 717 l 98 320 q 87 256 90 283 q 83 207 83 229 q 128 70 83 119 q 257 22 174 22 q 419 106 347 22 q 522 336 491 191 l 603 717 l 650 717 l 519 114 q 516 94 517 104 q 515 74 515 83 q 528 37 515 49 q 569 26 541 26 q 584 26 579 26 q 594 27 589 26 l 586 -13 q 572 -16 579 -15 q 551 -16 565 -16 q 490 2 510 -16 q 469 59 469 21 q 471 80 469 67 q 476 111 472 92 q 375 9 434 43 q 241 -25 316 -25 q 119 11 168 -25 q 54 113 69 48 l -30 -289 l -78 -289 l 136 717 "},"č":{"x_min":22,"x_max":654,"ha":732,"o":"m 628 237 q 492 47 582 113 q 283 -18 403 -18 q 93 63 165 -18 q 22 281 22 145 q 128 605 22 474 q 395 736 235 736 q 579 669 510 736 q 654 486 648 602 l 608 486 q 545 641 602 585 q 393 697 488 697 q 163 576 257 697 q 69 283 69 456 q 128 91 69 162 q 285 21 187 21 q 462 78 383 21 q 580 237 540 136 l 628 237 m 283 1033 l 320 1033 l 418 852 l 583 1033 l 625 1033 l 443 811 l 390 811 l 283 1033 "},"’":{"x_min":146,"x_max":317,"ha":329,"o":"m 146 725 l 269 999 l 317 999 l 193 725 l 146 725 "},"-":{"x_min":36,"x_max":374,"ha":476,"o":"m 36 339 l 46 378 l 374 378 l 364 339 l 36 339 "},"Q":{"x_min":65,"x_max":951,"ha":1018,"o":"m 641 74 l 536 177 l 565 206 l 677 98 q 846 309 789 179 q 904 612 904 440 q 818 878 904 782 q 581 975 732 975 q 405 939 481 975 q 260 827 329 904 q 151 637 190 749 q 112 399 112 525 q 198 118 112 219 q 438 18 285 18 q 543 31 493 18 q 641 74 594 45 m 815 -95 l 674 41 q 561 -7 620 8 q 437 -24 502 -24 q 164 89 263 -24 q 65 402 65 203 q 109 655 65 534 q 234 864 154 777 q 391 979 307 941 q 576 1018 476 1018 q 852 907 753 1018 q 951 598 951 797 q 888 288 951 425 q 707 64 825 150 l 840 -69 l 815 -95 "},"M":{"x_min":11,"x_max":1072,"ha":1083,"o":"m 11 0 l 222 999 l 293 999 l 454 76 l 998 999 l 1072 999 l 861 0 l 815 0 l 1015 944 l 458 0 l 425 0 l 257 947 l 57 0 l 11 0 "},"œ":{"x_min":22,"x_max":1222,"ha":1300,"o":"m 659 398 l 1178 398 q 1178 414 1178 403 q 1179 431 1179 425 q 1120 626 1179 558 q 952 695 1062 695 q 771 614 851 695 q 659 398 691 534 m 383 695 q 160 574 254 695 q 67 283 67 453 q 127 92 67 164 q 285 21 187 21 q 521 139 427 21 q 616 440 616 258 q 555 628 616 561 q 383 695 494 695 m 651 359 q 648 308 649 330 q 647 271 647 287 q 707 89 647 158 q 865 21 767 21 q 1025 76 951 21 q 1135 226 1099 132 l 1183 226 q 1056 48 1142 114 q 866 -18 970 -18 q 696 38 762 -18 q 609 202 630 95 q 474 38 556 95 q 292 -18 393 -18 q 94 62 167 -18 q 22 280 22 142 q 128 603 22 472 q 393 734 234 734 q 570 674 501 734 q 654 507 638 615 q 779 676 701 619 q 962 734 857 734 q 1153 654 1085 734 q 1222 431 1222 575 q 1221 396 1222 414 q 1219 359 1220 379 l 651 359 "},"{":{"x_min":122,"x_max":572,"ha":694,"o":"m 572 1002 l 572 955 l 546 955 q 419 918 452 955 q 386 768 386 882 l 386 603 q 357 432 386 483 q 255 358 328 381 q 357 286 328 336 q 386 115 386 236 l 386 -48 q 419 -196 386 -160 q 546 -233 452 -233 l 572 -233 l 572 -280 l 549 -280 q 376 -228 422 -280 q 330 -21 330 -176 l 330 139 q 290 292 330 248 q 152 336 250 336 q 137 335 147 336 q 122 335 128 335 l 122 383 q 135 382 128 382 q 156 382 143 382 q 290 426 251 382 q 330 580 330 471 l 330 742 q 376 950 330 898 q 549 1002 422 1002 l 572 1002 "},"¼":{"x_min":110.890625,"x_max":1107,"ha":1143,"o":"m 991 157 l 1069 486 l 733 157 l 991 157 m 954 0 l 986 135 l 693 135 l 699 157 l 1079 528 l 1107 528 l 1018 157 l 1090 157 l 1084 135 l 1012 135 l 979 0 l 954 0 m 222 -23 l 868 971 l 921 971 l 274 -23 l 222 -23 m 172 418 l 291 900 q 216 851 263 872 q 110 818 168 829 l 116 842 q 217 876 171 851 q 304 946 262 902 l 330 946 l 199 418 l 172 418 "},"#":{"x_min":97,"x_max":971,"ha":1068,"o":"m 480 590 l 412 393 l 597 393 l 665 590 l 480 590 m 555 985 l 620 985 l 498 640 l 684 640 l 806 985 l 870 985 l 749 640 l 971 640 l 955 590 l 730 590 l 661 393 l 902 393 l 887 343 l 644 343 l 523 1 l 458 1 l 580 343 l 393 343 l 270 1 l 206 1 l 327 343 l 97 343 l 112 393 l 344 393 l 416 590 l 164 590 l 179 640 l 433 640 l 555 985 "},"Ê":{"x_min":11,"x_max":739,"ha":746,"o":"m 11 0 l 222 999 l 739 999 l 730 956 l 259 956 l 170 536 l 641 536 l 631 494 l 162 494 l 66 43 l 604 43 l 594 0 l 11 0 m 666 1096 l 628 1096 l 530 1276 l 365 1096 l 323 1096 l 506 1318 l 559 1318 l 666 1096 "},")":{"x_min":-122,"x_max":261,"ha":400,"o":"m 177 997 q 240 749 220 868 q 261 512 261 630 q 180 99 261 291 q -75 -286 99 -92 l -122 -286 q 136 106 55 -87 q 218 525 218 300 q 198 746 218 629 q 137 997 178 862 l 177 997 "},"Å":{"x_min":-86,"x_max":712,"ha":787,"o":"m 180 375 l 603 375 l 504 937 l 180 375 m -86 0 l 492 999 l 540 999 l 712 0 l 667 0 l 610 330 l 156 330 l -35 0 l -86 0 m 418 1184 q 451 1104 418 1137 q 531 1072 485 1072 q 611 1104 578 1072 q 645 1184 645 1137 q 612 1264 645 1232 q 531 1297 580 1297 q 451 1264 484 1297 q 418 1184 418 1231 m 378 1183 q 422 1293 378 1248 q 530 1338 466 1338 q 640 1293 595 1338 q 685 1183 685 1248 q 639 1075 685 1119 q 530 1031 594 1031 q 422 1075 467 1031 q 378 1183 378 1119 "},"¸":{"x_min":79,"x_max":373,"ha":694,"o":"m 79 -279 l 91 -242 q 177 -260 148 -256 q 231 -265 207 -265 q 304 -241 276 -265 q 333 -181 333 -218 q 304 -129 333 -145 q 213 -114 276 -114 l 186 -114 l 225 0 l 253 0 l 228 -82 l 243 -82 q 340 -107 307 -82 q 373 -180 373 -132 q 333 -268 373 -235 q 227 -302 294 -302 q 162 -296 198 -302 q 79 -279 125 -290 "},"a":{"x_min":-5,"x_max":609,"ha":708,"o":"m 604 0 q 574 -7 585 -5 q 553 -10 562 -10 q 493 10 515 -10 q 472 67 472 30 q 476 101 472 76 q 478 113 478 109 q 356 14 421 47 q 216 -18 292 -18 q 56 38 117 -18 q -5 182 -5 94 q 25 290 -5 244 q 113 365 55 337 q 324 406 173 392 q 429 417 393 412 q 541 457 514 428 q 569 560 569 487 q 515 658 569 623 q 367 694 461 694 q 207 650 266 694 q 129 518 148 606 l 84 518 q 179 680 109 627 q 367 733 249 733 q 544 688 480 733 q 609 567 609 644 q 606 519 609 545 q 598 468 603 494 l 524 119 q 523 115 524 118 q 518 77 518 89 q 528 43 518 54 q 560 33 538 33 q 581 35 569 33 q 604 41 592 37 l 604 0 m 542 410 q 475 381 519 393 q 393 370 431 370 q 128 324 217 370 q 40 187 40 278 q 88 68 40 112 q 218 24 136 24 q 408 95 326 24 q 516 288 489 166 l 542 410 "},"=":{"x_min":172,"x_max":984,"ha":1157,"o":"m 172 315 l 984 315 l 984 272 l 172 272 l 172 315 m 172 555 l 984 555 l 984 512 l 172 512 l 172 555 "},"˚":{"x_min":281,"x_max":591,"ha":694,"o":"m 318 924 q 351 840 318 874 q 436 806 385 806 q 519 840 485 806 q 554 924 554 874 q 519 1007 554 973 q 436 1042 485 1042 q 351 1008 385 1042 q 318 924 318 974 m 281 924 q 325 1034 281 989 q 435 1079 370 1079 q 545 1034 500 1079 q 591 924 591 989 q 545 814 591 860 q 435 769 499 769 q 325 814 370 769 q 281 924 281 859 "},"ú":{"x_min":32,"x_max":671,"ha":724,"o":"m 671 721 l 518 0 l 474 0 l 504 125 q 383 16 451 53 q 234 -20 315 -20 q 85 27 138 -20 q 32 161 32 75 q 46 269 32 194 l 48 277 l 141 721 l 184 721 l 81 231 q 76 197 78 213 q 75 166 75 180 q 117 56 75 94 q 237 18 159 18 q 438 102 358 18 q 551 349 518 186 l 628 721 l 671 721 m 398 811 l 357 811 l 522 1033 l 582 1033 l 398 811 "},"¯":{"x_min":275,"x_max":588,"ha":694,"o":"m 275 885 l 285 933 l 588 933 l 577 885 l 275 885 "},"Z":{"x_min":-24,"x_max":763,"ha":734,"o":"m -24 0 l -12 52 l 706 956 l 155 956 l 163 999 l 763 999 l 752 942 l 35 43 l 630 43 l 622 0 l -24 0 "},"u":{"x_min":32,"x_max":671,"ha":724,"o":"m 671 721 l 518 0 l 474 0 l 504 125 q 383 16 451 53 q 234 -20 315 -20 q 85 27 138 -20 q 32 161 32 75 q 46 269 32 194 l 48 277 l 141 721 l 184 721 l 81 231 q 76 197 78 213 q 75 166 75 180 q 117 56 75 94 q 237 18 159 18 q 438 102 358 18 q 551 349 518 186 l 628 721 l 671 721 "},"k":{"x_min":-11,"x_max":629,"ha":621,"o":"m -11 0 l 199 999 l 242 999 l 99 318 l 568 721 l 629 721 l 342 476 l 524 0 l 480 0 l 309 446 l 86 257 l 31 0 l -11 0 "},"Ù":{"x_min":77,"x_max":916,"ha":926,"o":"m 218 999 l 266 999 l 132 364 q 123 311 126 338 q 121 255 121 283 q 192 82 121 146 q 384 18 264 18 q 610 88 530 18 q 725 320 690 159 l 868 999 l 916 999 l 768 307 q 640 56 732 137 q 392 -24 548 -24 q 161 50 245 -24 q 77 255 77 125 q 80 325 77 290 q 90 394 83 359 l 218 999 m 659 1096 l 621 1096 l 447 1318 l 506 1318 l 659 1096 "},"¢":{"x_min":46,"x_max":677,"ha":724,"o":"m 438 696 l 420 696 q 186 577 281 696 q 91 283 91 458 q 128 121 91 185 q 238 32 166 57 l 438 696 m 277 23 q 293 22 285 22 q 315 22 301 22 q 486 78 410 22 q 602 237 562 135 l 651 237 q 519 50 607 118 q 321 -17 430 -17 q 298 -15 312 -17 q 266 -12 284 -14 l 205 -213 l 163 -213 l 227 -4 q 93 93 140 18 q 46 280 46 168 q 153 605 46 474 q 420 736 260 736 q 439 736 433 736 q 451 735 445 736 l 499 897 l 540 897 l 490 730 q 624 646 576 708 q 677 486 672 583 l 632 486 q 588 620 626 568 q 479 690 549 671 l 277 23 "},"Ş":{"x_min":40,"x_max":745,"ha":785,"o":"m 85 305 q 155 92 85 164 q 360 20 225 20 q 552 84 480 20 q 624 257 624 148 q 576 392 624 340 q 384 501 529 445 q 205 610 257 551 q 153 755 153 668 q 233 945 153 873 q 444 1018 313 1018 q 666 942 587 1018 q 745 728 745 866 l 745 724 l 699 724 l 699 733 q 633 913 699 849 q 449 977 567 977 q 267 917 334 977 q 200 758 200 858 q 424 534 200 627 q 461 518 448 523 q 622 409 573 470 q 671 257 671 348 q 585 52 671 127 q 352 -22 500 -22 q 121 59 203 -22 q 40 290 40 141 l 40 305 l 85 305 m 131 -279 l 143 -242 q 229 -260 200 -256 q 283 -265 259 -265 q 356 -241 328 -265 q 385 -181 385 -218 q 356 -129 385 -145 q 265 -114 328 -114 l 238 -114 l 277 0 l 305 0 l 280 -82 l 295 -82 q 392 -107 359 -82 q 425 -180 425 -132 q 385 -268 425 -235 q 279 -302 346 -302 q 214 -296 250 -302 q 131 -279 177 -290 "},"é":{"x_min":32,"x_max":653,"ha":739,"o":"m 82 360 q 79 317 80 338 q 78 271 78 296 q 136 90 78 160 q 289 21 195 21 q 453 75 380 21 q 565 226 527 129 l 612 226 q 486 47 571 113 q 295 -18 401 -18 q 103 61 174 -18 q 32 279 32 141 q 134 603 32 472 q 391 734 237 734 q 583 654 514 734 q 653 431 653 574 q 651 396 653 414 q 649 360 650 379 l 82 360 m 91 399 l 608 399 q 609 414 608 403 q 610 429 610 424 q 551 626 610 557 q 383 695 492 695 q 202 614 282 695 q 91 399 122 534 m 386 811 l 345 811 l 510 1033 l 570 1033 l 386 811 "},"B":{"x_min":11,"x_max":785,"ha":848,"o":"m 67 41 l 275 41 q 454 47 402 41 q 546 70 506 54 q 661 161 622 102 q 700 305 700 220 q 627 456 700 409 q 394 504 555 504 l 165 504 l 67 41 m 175 549 l 413 549 q 555 556 511 549 q 632 580 599 563 q 710 657 684 609 q 736 774 736 705 q 671 916 736 873 q 450 960 607 960 l 262 960 l 175 549 m 11 0 l 222 999 l 462 999 q 603 990 561 999 q 677 963 645 982 q 757 885 730 934 q 785 772 785 836 q 730 608 785 672 q 572 522 675 543 q 705 446 660 500 q 750 308 750 392 q 715 161 750 225 q 616 55 681 96 q 505 12 569 25 q 293 0 442 0 l 273 0 l 11 0 "},"…":{"x_min":98,"x_max":1107,"ha":1389,"o":"m 98 0 l 123 122 l 181 122 l 156 0 l 98 0 m 560 0 l 585 122 l 643 122 l 618 0 l 560 0 m 1024 0 l 1049 122 l 1107 122 l 1082 0 l 1024 0 "},"H":{"x_min":11,"x_max":927,"ha":937,"o":"m 11 0 l 222 999 l 269 999 l 175 555 l 786 555 l 879 999 l 927 999 l 714 0 l 668 0 l 777 514 l 167 514 l 57 0 l 11 0 "},"î":{"x_min":-8,"x_max":362,"ha":243,"o":"m -8 0 l 144 721 l 189 721 l 34 0 l -8 0 m 362 811 l 324 811 l 226 991 l 61 811 l 19 811 l 202 1033 l 255 1033 l 362 811 "},"−":{"x_min":172,"x_max":984,"ha":1157,"o":"m 172 434 l 984 434 l 984 393 l 172 393 l 172 434 "},"≠":{"x_min":172,"x_max":984,"ha":1157,"o":"m 826 777 l 860 750 l 706 555 l 984 555 l 984 512 l 681 512 l 528 315 l 984 315 l 984 272 l 502 272 l 329 50 l 295 76 l 449 272 l 172 272 l 172 315 l 474 315 l 627 512 l 172 512 l 172 555 l 653 555 l 826 777 "},"¥":{"x_min":15.578125,"x_max":757,"ha":724,"o":"m 251 0 l 339 412 l 15 412 l 22 445 l 323 445 l 276 552 l 46 552 l 52 585 l 262 585 l 107 943 l 153 943 l 365 449 l 705 943 l 757 943 l 507 585 l 716 585 l 710 552 l 483 552 l 406 445 l 686 445 l 678 412 l 385 412 l 381 403 l 295 0 l 251 0 "},"U":{"x_min":77,"x_max":916,"ha":926,"o":"m 218 999 l 266 999 l 132 364 q 123 311 126 338 q 121 255 121 283 q 192 82 121 146 q 384 18 264 18 q 610 88 530 18 q 725 320 690 159 l 868 999 l 916 999 l 768 307 q 640 56 732 137 q 392 -24 548 -24 q 161 50 245 -24 q 77 255 77 125 q 80 325 77 290 q 90 394 83 359 l 218 999 "},"Ñ":{"x_min":11,"x_max":925,"ha":936,"o":"m 11 0 l 222 999 l 278 999 l 677 47 l 878 999 l 925 999 l 712 0 l 653 0 l 255 942 l 55 0 l 11 0 m 781 1243 q 735 1170 763 1194 q 669 1146 708 1146 q 648 1147 658 1146 q 629 1151 638 1148 l 577 1167 q 555 1172 566 1170 q 533 1174 544 1174 q 491 1161 509 1174 q 461 1123 473 1148 l 431 1123 q 474 1197 447 1172 q 539 1222 502 1222 q 562 1219 550 1222 q 589 1213 575 1217 l 639 1198 q 656 1195 647 1196 q 676 1194 666 1194 q 719 1205 703 1194 q 749 1243 736 1217 l 781 1243 "},"F":{"x_min":11,"x_max":728,"ha":711,"o":"m 11 0 l 222 999 l 728 999 l 719 954 l 259 954 l 171 538 l 631 538 l 622 496 l 162 496 l 57 0 l 11 0 "},"*":{"x_min":204,"x_max":609,"ha":694,"o":"m 295 611 l 259 637 l 380 786 l 204 835 l 220 882 l 389 820 l 383 999 l 430 999 l 424 820 l 590 882 l 609 835 l 432 786 l 550 637 l 517 611 l 405 763 l 295 611 "},"†":{"x_min":96,"x_max":666,"ha":694,"o":"m 183 -144 l 354 656 l 96 656 l 104 697 l 363 697 l 427 999 l 469 999 l 406 697 l 666 697 l 657 656 l 397 656 l 226 -144 l 183 -144 "},"∕":{"x_min":-233,"x_max":466,"ha":232,"o":"m -233 -23 l 413 971 l 466 971 l -180 -23 l -233 -23 "},"°":{"x_min":46,"x_max":412,"ha":457,"o":"m 229 947 q 124 903 167 947 q 81 799 81 860 q 124 694 81 737 q 229 651 167 651 q 334 694 291 651 q 377 799 377 737 q 333 903 377 860 q 229 947 290 947 m 229 982 q 358 928 304 982 q 412 798 412 874 q 358 669 412 723 q 228 616 304 616 q 98 668 151 616 q 46 798 46 721 q 99 928 46 874 q 229 982 153 982 "},"å":{"x_min":-5,"x_max":609,"ha":708,"o":"m 306 922 q 339 843 306 876 q 419 811 372 811 q 500 843 467 811 q 533 922 533 876 q 500 1002 533 970 q 419 1034 467 1034 q 338 1001 371 1034 q 306 922 306 968 m 266 922 q 311 1032 266 987 q 419 1077 356 1077 q 528 1032 484 1077 q 573 922 573 987 q 528 812 573 857 q 419 768 484 768 q 311 813 356 768 q 266 922 266 858 m 543 410 q 476 381 519 393 q 394 370 432 370 q 128 324 217 370 q 40 187 40 278 q 88 68 40 112 q 218 24 136 24 q 408 95 326 24 q 516 288 490 166 l 543 410 m 604 0 q 574 -7 585 -5 q 553 -10 562 -10 q 494 10 515 -10 q 472 67 472 30 q 476 101 472 76 q 478 113 478 109 q 356 14 421 47 q 216 -18 292 -18 q 56 38 117 -18 q -5 182 -5 94 q 25 290 -5 244 q 113 365 55 337 q 324 406 173 392 q 429 417 393 412 q 541 457 514 428 q 569 560 569 487 q 515 658 569 623 q 367 694 461 694 q 207 650 266 694 q 129 518 148 606 l 84 518 q 179 680 109 627 q 367 733 249 733 q 544 688 480 733 q 609 567 609 644 q 606 519 609 545 q 598 468 603 494 l 524 119 q 524 115 524 118 q 519 77 519 89 q 529 43 519 54 q 560 33 538 33 q 581 35 569 33 q 604 41 592 37 l 604 0 "},"0":{"x_min":37,"x_max":686,"ha":724,"o":"m 438 934 q 308 897 367 934 q 207 790 248 860 q 114 558 148 693 q 80 285 80 423 q 133 87 80 158 q 282 17 187 17 q 397 47 343 17 q 496 135 452 77 q 600 366 560 221 q 641 665 641 511 q 587 863 641 792 q 438 934 533 934 m 37 304 q 73 575 37 437 q 170 808 110 712 q 289 930 220 888 q 442 973 359 973 q 622 886 558 973 q 686 641 686 799 q 649 376 686 510 q 551 140 613 242 q 433 20 503 62 q 280 -21 363 -21 q 100 63 163 -21 q 37 304 37 148 "},"":{"x_min":77,"x_max":1021,"ha":1097,"o":"m 567 824 q 566 834 566 828 q 565 849 565 839 q 630 1005 565 934 q 790 1094 694 1077 q 791 1079 791 1087 q 791 1052 791 1070 q 721 893 791 963 q 583 823 651 823 l 578 823 q 573 824 576 823 q 567 824 570 824 m 1021 273 q 881 40 943 105 q 743 -24 820 -24 q 654 -1 709 -24 q 571 20 599 20 q 482 -1 540 20 q 396 -24 424 -24 q 309 5 353 -24 q 221 95 265 35 q 114 295 152 190 q 77 499 77 401 q 161 741 77 648 q 380 835 246 835 q 485 811 426 835 q 570 788 544 788 q 652 812 593 788 q 755 836 711 836 q 890 809 830 836 q 999 725 949 782 q 896 626 930 680 q 863 502 863 571 q 903 366 863 425 q 1021 273 944 307 "},"”":{"x_min":146,"x_max":517,"ha":529,"o":"m 345 725 l 468 999 l 517 999 l 392 725 l 345 725 m 146 725 l 269 999 l 317 999 l 193 725 l 146 725 "},"ö":{"x_min":22,"x_max":662,"ha":749,"o":"m 383 695 q 160 574 254 695 q 67 283 67 453 q 127 92 67 164 q 285 21 187 21 q 521 140 426 21 q 616 440 616 260 q 555 628 616 561 q 383 695 494 695 m 22 280 q 128 603 22 473 q 394 734 234 734 q 590 655 518 734 q 662 441 662 577 q 555 111 662 240 q 283 -18 448 -18 q 94 63 166 -18 q 22 280 22 145 m 507 869 l 523 947 l 586 947 l 569 869 l 507 869 m 292 869 l 308 947 l 371 947 l 355 869 l 292 869 "},"Õ":{"x_min":65,"x_max":951,"ha":1018,"o":"m 581 975 q 407 940 483 975 q 261 827 331 905 q 151 637 190 748 q 112 402 112 526 q 198 120 112 221 q 437 19 284 19 q 770 184 637 19 q 904 610 904 350 q 817 877 904 780 q 581 975 731 975 m 65 404 q 109 655 65 534 q 235 864 154 776 q 391 979 307 941 q 576 1018 476 1018 q 850 908 749 1018 q 951 612 951 799 q 805 154 951 333 q 438 -24 660 -24 q 164 89 263 -24 q 65 404 65 203 m 798 1243 q 752 1170 780 1194 q 686 1146 725 1146 q 665 1147 675 1146 q 646 1151 655 1148 l 594 1167 q 572 1172 583 1170 q 550 1174 561 1174 q 508 1161 526 1174 q 478 1123 490 1148 l 448 1123 q 491 1197 464 1172 q 556 1222 519 1222 q 579 1219 567 1222 q 606 1213 592 1217 l 656 1198 q 673 1195 664 1196 q 693 1194 683 1194 q 736 1205 720 1194 q 766 1243 753 1217 l 798 1243 "},"ć":{"x_min":22,"x_max":654,"ha":732,"o":"m 628 237 q 492 47 582 113 q 283 -18 403 -18 q 93 63 165 -18 q 22 281 22 145 q 128 605 22 474 q 395 736 235 736 q 579 669 510 736 q 654 486 648 602 l 608 486 q 545 641 602 585 q 393 697 488 697 q 163 576 257 697 q 69 283 69 456 q 128 91 69 162 q 285 21 187 21 q 462 78 383 21 q 580 237 540 136 l 628 237 m 395 811 l 354 811 l 519 1033 l 579 1033 l 395 811 "},"þ":{"x_min":-69,"x_max":701,"ha":787,"o":"m 75 197 l -27 -286 l -69 -286 l 201 999 l 244 999 l 155 575 q 271 692 201 651 q 427 734 342 734 q 628 657 556 734 q 701 441 701 580 q 595 112 701 243 q 333 -18 490 -18 q 160 39 229 -18 q 75 197 90 97 m 423 695 q 199 574 293 695 q 104 283 104 453 q 165 91 104 162 q 330 21 226 21 q 562 141 468 21 q 657 442 657 262 q 595 628 657 562 q 423 695 534 695 "},"]":{"x_min":-164,"x_max":366,"ha":419,"o":"m 366 996 l 93 -287 l -164 -287 l -153 -245 l 55 -245 l 310 955 l 99 955 l 108 996 l 366 996 "},"8":{"x_min":32,"x_max":663,"ha":724,"o":"m 262 520 q 165 598 199 548 q 132 713 132 648 q 210 893 132 821 q 411 966 289 966 q 594 906 526 966 q 663 748 663 847 q 610 596 663 661 q 467 508 557 531 q 588 420 546 482 q 631 270 631 359 q 540 59 631 142 q 310 -24 450 -24 q 107 46 182 -24 q 32 235 32 117 q 91 416 32 344 q 262 520 150 489 m 308 17 q 507 89 431 17 q 584 278 584 161 q 519 435 584 377 q 342 493 454 493 q 151 423 225 493 q 78 244 78 353 q 140 78 78 139 q 308 17 202 17 m 179 716 q 234 583 179 633 q 382 534 289 534 q 550 594 484 534 q 616 748 616 655 q 559 879 616 830 q 410 929 503 929 q 244 867 310 929 q 179 716 179 806 "},"R":{"x_min":11,"x_max":804,"ha":847,"o":"m 11 0 l 222 999 l 446 999 q 723 944 643 999 q 804 762 804 889 q 748 585 804 654 q 582 490 692 517 q 665 426 639 465 q 691 323 691 387 q 683 204 691 286 q 675 76 675 121 q 680 36 675 51 q 697 10 686 21 l 697 0 l 644 0 q 631 32 635 15 q 628 70 628 50 q 635 200 628 120 q 642 313 642 281 q 588 440 642 404 q 391 476 534 476 l 159 476 l 58 0 l 11 0 m 167 518 l 392 518 q 559 525 511 518 q 641 552 606 533 q 727 637 697 583 q 757 763 757 691 q 692 910 757 865 q 479 956 627 956 l 260 956 l 167 518 "},"o":{"x_min":22,"x_max":662,"ha":749,"o":"m 383 695 q 160 574 254 695 q 67 283 67 453 q 127 92 67 164 q 285 21 187 21 q 521 140 426 21 q 616 440 616 260 q 555 628 616 561 q 383 695 494 695 m 22 280 q 128 603 22 473 q 394 734 234 734 q 590 655 518 734 q 662 441 662 577 q 555 111 662 240 q 283 -18 448 -18 q 94 63 166 -18 q 22 280 22 145 "},"5":{"x_min":31,"x_max":684,"ha":724,"o":"m 31 220 l 74 220 q 136 64 78 121 q 286 8 193 8 q 503 102 417 8 q 589 342 589 197 q 526 502 589 441 q 364 563 464 563 q 240 534 297 563 q 137 452 183 506 l 89 452 l 238 943 l 684 943 l 675 905 l 268 905 l 152 520 q 250 581 197 561 q 365 602 302 602 q 562 528 489 602 q 635 330 635 455 q 534 73 635 177 q 283 -31 433 -31 q 100 35 167 -31 q 31 220 33 102 "},"õ":{"x_min":22,"x_max":662,"ha":749,"o":"m 383 695 q 160 574 254 695 q 67 283 67 453 q 127 92 67 164 q 285 21 187 21 q 521 140 426 21 q 616 440 616 260 q 555 628 616 561 q 383 695 494 695 m 22 280 q 128 603 22 473 q 394 734 234 734 q 590 655 518 734 q 662 441 662 577 q 555 111 662 240 q 283 -18 448 -18 q 94 63 166 -18 q 22 280 22 145 m 613 958 q 567 885 595 909 q 501 861 540 861 q 480 862 490 861 q 461 866 470 863 l 409 882 q 387 887 398 885 q 365 889 376 889 q 323 876 341 889 q 293 838 305 863 l 263 838 q 306 912 279 887 q 371 937 334 937 q 394 934 382 937 q 421 928 407 932 l 471 913 q 488 910 479 911 q 508 909 498 909 q 551 920 535 909 q 581 958 568 932 l 613 958 "},",":{"x_min":-32,"x_max":150,"ha":361,"o":"m -32 -145 l 91 122 l 150 122 l 26 -145 l -32 -145 "},"d":{"x_min":22,"x_max":792,"ha":786,"o":"m 299 19 q 523 139 429 19 q 618 430 618 260 q 557 622 618 551 q 392 694 495 694 q 160 572 254 694 q 66 271 66 451 q 127 85 66 151 q 299 19 188 19 m 537 0 l 567 138 q 451 20 521 61 q 295 -20 380 -20 q 93 57 165 -20 q 22 273 22 134 q 127 602 22 471 q 389 733 232 733 q 562 674 493 733 q 647 517 632 616 l 749 999 l 792 999 l 579 0 l 537 0 "},"\"":{"x_min":70,"x_max":290,"ha":359,"o":"m 243 973 l 290 973 l 290 598 l 243 598 l 243 973 m 70 973 l 117 973 l 117 598 l 70 598 l 70 973 "},"˙":{"x_min":390,"x_max":473,"ha":694,"o":"m 390 868 l 408 950 l 473 950 l 456 868 l 390 868 "},"ê":{"x_min":32,"x_max":653,"ha":739,"o":"m 82 360 q 79 317 80 338 q 78 271 78 296 q 136 90 78 160 q 289 21 195 21 q 453 75 380 21 q 565 226 527 129 l 612 226 q 486 47 571 113 q 295 -18 401 -18 q 103 61 174 -18 q 32 279 32 141 q 134 603 32 472 q 391 734 237 734 q 583 654 514 734 q 653 431 653 574 q 651 396 653 414 q 649 360 650 379 l 82 360 m 91 399 l 608 399 q 609 414 608 403 q 610 429 610 424 q 551 626 610 557 q 383 695 492 695 q 202 614 282 695 q 91 399 122 534 m 583 811 l 545 811 l 447 991 l 282 811 l 240 811 l 423 1033 l 476 1033 l 583 811 "},"„":{"x_min":-57,"x_max":314,"ha":529,"o":"m 143 -151 l 266 122 l 314 122 l 190 -151 l 143 -151 m -57 -151 l 66 122 l 115 122 l -8 -151 l -57 -151 "},"Â":{"x_min":-86,"x_max":712,"ha":787,"o":"m 180 375 l 602 375 l 504 937 l 180 375 m -86 0 l 492 999 l 539 999 l 712 0 l 667 0 l 608 330 l 155 330 l -35 0 l -86 0 m 698 1096 l 660 1096 l 562 1276 l 397 1096 l 355 1096 l 538 1318 l 591 1318 l 698 1096 "},"Í":{"x_min":16,"x_max":425,"ha":290,"o":"m 16 0 l 228 999 l 276 999 l 62 0 l 16 0 m 241 1096 l 200 1096 l 365 1318 l 425 1318 l 241 1096 "},"´":{"x_min":349,"x_max":574,"ha":694,"o":"m 390 811 l 349 811 l 514 1033 l 574 1033 l 390 811 "},"Ú":{"x_min":77,"x_max":916,"ha":926,"o":"m 218 999 l 266 999 l 132 364 q 123 311 126 338 q 121 255 121 283 q 192 82 121 146 q 384 18 264 18 q 610 88 530 18 q 725 320 690 159 l 868 999 l 916 999 l 768 307 q 640 56 732 137 q 392 -24 548 -24 q 161 50 245 -24 q 77 255 77 125 q 80 325 77 290 q 90 394 83 359 l 218 999 m 560 1096 l 519 1096 l 684 1318 l 744 1318 l 560 1096 "},"Ý":{"x_min":94,"x_max":750,"ha":718,"o":"m 247 0 l 338 433 l 94 999 l 142 999 l 366 479 l 695 999 l 750 999 l 385 427 l 294 0 l 247 0 m 455 1096 l 414 1096 l 579 1318 l 639 1318 l 455 1096 "},"Ω":{"x_min":87,"x_max":971,"ha":1060,"o":"m 716 52 l 955 52 l 955 0 l 578 0 l 578 32 q 830 254 746 129 q 915 532 915 379 q 806 852 915 729 q 528 976 698 976 q 251 852 358 976 q 144 532 144 729 q 227 255 144 380 q 480 32 311 130 l 480 0 l 103 0 l 103 52 l 342 52 q 148 265 210 149 q 87 529 87 381 q 212 886 87 746 q 528 1026 338 1026 q 845 886 719 1026 q 971 527 971 746 q 908 265 971 381 q 716 52 846 149 "},"Ö":{"x_min":65,"x_max":951,"ha":1018,"o":"m 581 975 q 407 940 483 975 q 261 827 331 905 q 151 637 190 748 q 112 402 112 526 q 198 120 112 221 q 437 19 284 19 q 770 184 637 19 q 904 610 904 350 q 817 877 904 780 q 581 975 731 975 m 65 404 q 109 655 65 534 q 235 864 154 776 q 391 979 307 941 q 576 1018 476 1018 q 850 908 749 1018 q 951 612 951 799 q 805 154 951 333 q 438 -24 660 -24 q 164 89 263 -24 q 65 404 65 203 m 692 1154 l 708 1232 l 771 1232 l 754 1154 l 692 1154 m 477 1154 l 493 1232 l 556 1232 l 540 1154 l 477 1154 "},"z":{"x_min":-53,"x_max":589,"ha":604,"o":"m -53 0 l -42 47 l 530 679 l 59 679 l 66 721 l 589 721 l 582 676 l 5 40 l 498 40 l 493 0 l -53 0 "},"™":{"x_min":193,"x_max":916,"ha":1157,"o":"m 561 985 l 620 985 l 743 676 l 857 985 l 916 985 l 916 628 l 884 628 l 884 959 l 759 628 l 728 628 l 595 959 l 595 628 l 561 628 l 561 985 m 193 985 l 471 985 l 471 957 l 353 957 l 353 628 l 314 628 l 314 957 l 193 957 l 193 985 "},"ã":{"x_min":-5,"x_max":609,"ha":708,"o":"m 604 0 q 574 -7 585 -5 q 553 -10 562 -10 q 493 10 515 -10 q 472 67 472 30 q 476 101 472 76 q 478 113 478 109 q 356 14 421 47 q 216 -18 292 -18 q 56 38 117 -18 q -5 182 -5 94 q 25 290 -5 244 q 113 365 55 337 q 324 406 173 392 q 429 417 393 412 q 541 457 514 428 q 569 560 569 487 q 515 658 569 623 q 367 694 461 694 q 207 650 266 694 q 129 518 148 606 l 84 518 q 179 680 109 627 q 367 733 249 733 q 544 688 480 733 q 609 567 609 644 q 606 519 609 545 q 598 468 603 494 l 524 119 q 523 115 524 118 q 518 77 518 89 q 528 43 518 54 q 560 33 538 33 q 581 35 569 33 q 604 41 592 37 l 604 0 m 542 410 q 475 381 519 393 q 393 370 431 370 q 128 324 217 370 q 40 187 40 278 q 88 68 40 112 q 218 24 136 24 q 408 95 326 24 q 516 288 489 166 l 542 410 m 586 958 q 540 885 568 909 q 474 861 513 861 q 453 862 463 861 q 434 866 443 863 l 382 882 q 360 887 371 885 q 338 889 349 889 q 296 876 314 889 q 266 838 278 863 l 236 838 q 279 912 252 887 q 344 937 307 937 q 367 934 355 937 q 394 928 380 932 l 444 913 q 461 910 452 911 q 481 909 471 909 q 524 920 508 909 q 554 958 541 932 l 586 958 "},"æ":{"x_min":-5,"x_max":1140,"ha":1226,"o":"m 580 400 l 1095 400 q 1096 415 1095 404 q 1097 430 1097 425 q 1038 626 1097 558 q 870 695 979 695 q 685 612 766 695 q 580 400 603 530 m 541 409 q 476 381 520 393 q 393 370 431 370 q 128 324 217 370 q 40 187 40 278 q 88 68 40 112 q 218 24 136 24 q 408 95 326 24 q 515 287 490 166 l 541 409 m 528 203 q 403 43 489 104 q 216 -18 317 -18 q 56 38 117 -18 q -5 182 -5 94 q 25 290 -5 244 q 112 365 55 337 q 324 406 173 392 q 428 417 392 412 q 541 457 514 428 q 568 560 568 487 q 514 658 568 622 q 366 693 461 693 q 207 649 266 693 q 129 517 147 605 l 84 517 q 179 679 109 626 q 367 732 249 732 q 537 692 474 732 q 608 580 601 651 q 727 695 661 657 q 873 734 793 734 q 1071 655 1002 734 q 1140 431 1140 577 q 1138 407 1140 424 q 1135 361 1137 389 l 572 360 q 564 305 566 327 q 562 266 562 283 q 622 91 562 160 q 775 21 682 21 q 940 75 866 21 q 1052 226 1014 130 l 1099 226 q 970 45 1056 109 q 772 -18 885 -18 q 609 41 674 -18 q 528 203 543 101 "},"É":{"x_min":11,"x_max":739,"ha":746,"o":"m 11 0 l 222 999 l 739 999 l 730 956 l 259 956 l 170 536 l 641 536 l 631 494 l 162 494 l 66 43 l 604 43 l 594 0 l 11 0 m 469 1096 l 428 1096 l 593 1318 l 653 1318 l 469 1096 "},"~":{"x_min":121,"x_max":1038,"ha":1157,"o":"m 1038 495 l 1038 446 q 901 371 966 396 q 775 346 835 346 q 693 354 734 346 q 580 390 652 363 q 554 399 571 393 q 383 442 441 442 q 267 416 328 442 q 121 331 206 391 l 121 381 q 255 457 190 432 q 383 483 321 483 q 445 476 413 483 q 514 457 478 470 q 573 435 534 450 q 775 386 707 386 q 893 411 831 386 q 1038 495 955 437 "},"³":{"x_min":22,"x_max":442,"ha":478,"o":"m 91 823 q 153 925 104 888 q 275 962 202 962 q 396 924 350 962 q 442 825 442 886 q 404 728 442 767 q 301 677 366 688 q 384 630 354 666 q 414 542 414 595 q 355 415 414 464 q 203 367 296 367 q 71 407 119 367 q 22 521 24 448 l 50 521 q 93 425 54 459 q 203 392 133 392 q 332 434 282 392 q 383 544 383 476 q 338 635 383 603 q 210 667 293 667 l 188 667 l 192 691 l 206 691 q 360 724 307 691 q 413 823 413 758 q 375 908 413 876 q 277 940 338 940 q 172 908 215 940 q 119 823 129 876 l 91 823 "},"¡":{"x_min":82,"x_max":353,"ha":427,"o":"m 287 757 l 130 0 l 82 0 l 253 757 l 287 757 m 353 997 l 326 872 l 267 872 l 293 997 l 353 997 "},"[":{"x_min":-11,"x_max":518,"ha":419,"o":"m -11 -287 l 261 996 l 518 996 l 508 955 l 298 955 l 44 -245 l 254 -245 l 245 -287 l -11 -287 "},"%":{"x_min":56,"x_max":955,"ha":1010,"o":"m 574 190 q 623 70 574 119 q 743 21 672 21 q 862 70 813 21 q 912 190 912 119 q 862 309 912 260 q 743 359 813 359 q 623 309 672 359 q 574 190 574 260 m 531 189 q 593 339 531 277 q 743 402 655 402 q 893 339 831 402 q 955 189 955 277 q 892 40 955 102 q 743 -22 830 -22 q 593 40 655 -22 q 531 189 531 102 m 202 -22 l 758 999 l 807 999 l 249 -22 l 202 -22 m 56 786 q 118 936 56 874 q 268 999 180 999 q 418 936 356 999 q 480 786 480 874 q 417 637 480 699 q 268 575 355 575 q 118 637 180 575 q 56 786 56 699 m 99 787 q 148 667 99 716 q 267 618 197 618 q 387 667 337 618 q 437 787 437 717 q 387 906 437 856 q 267 956 338 956 q 148 906 197 956 q 99 787 99 857 "},"P":{"x_min":11,"x_max":770,"ha":783,"o":"m 11 0 l 222 999 l 415 999 q 685 937 600 999 q 770 745 770 876 q 739 600 770 665 q 652 496 708 535 q 539 450 603 464 q 331 437 474 437 l 295 437 l 151 437 l 58 0 l 11 0 m 161 480 l 331 480 q 496 487 441 480 q 590 513 550 494 q 686 602 652 540 q 720 750 720 665 q 695 852 720 808 q 625 922 671 895 q 542 949 591 941 q 375 958 494 958 l 262 958 l 161 480 "},"∏":{"x_min":114,"x_max":874,"ha":986,"o":"m 114 999 l 874 999 l 874 -266 l 825 -266 l 825 950 l 163 950 l 163 -266 l 114 -266 l 114 999 "},"_":{"x_min":0,"x_max":694,"ha":694,"o":"m 0 -287 l 694 -287 l 694 -328 l 0 -328 l 0 -287 "},"ñ":{"x_min":-10,"x_max":629,"ha":724,"o":"m -10 0 l 143 721 l 185 721 l 157 586 q 278 695 210 658 q 426 732 345 732 q 575 684 522 732 q 629 551 629 637 q 614 443 629 517 l 612 435 l 520 0 l 478 0 l 579 481 q 584 515 582 499 q 586 546 586 531 q 544 656 586 618 q 425 695 503 695 q 224 610 304 695 q 109 363 144 526 l 33 0 l -10 0 m 622 958 q 576 885 604 909 q 510 861 549 861 q 489 862 499 861 q 470 866 479 863 l 418 882 q 396 887 407 885 q 374 889 385 889 q 332 876 350 889 q 302 838 314 863 l 272 838 q 315 912 288 887 q 380 937 343 937 q 403 934 391 937 q 430 928 416 932 l 480 913 q 497 910 488 911 q 517 909 507 909 q 560 920 544 909 q 590 958 577 932 l 622 958 "},"‚":{"x_min":-57,"x_max":115,"ha":329,"o":"m -57 -151 l 66 122 l 115 122 l -8 -151 l -57 -151 "},"Æ":{"x_min":-10,"x_max":1334,"ha":1348,"o":"m 631 0 l 703 338 l 262 338 l 46 0 l -10 0 l 635 999 l 1334 999 l 1324 957 l 881 957 l 791 536 l 1235 536 l 1225 494 l 782 494 l 687 43 l 1201 43 l 1190 0 l 631 0 m 288 379 l 712 379 l 834 957 l 656 957 l 288 379 "},"₣":{"x_min":11,"x_max":1119,"ha":1097,"o":"m 11 0 l 222 999 l 728 999 l 719 954 l 259 954 l 171 538 l 631 538 l 622 496 l 162 496 l 57 0 l 11 0 m 706 0 l 858 721 l 901 721 l 876 606 q 952 698 906 666 q 1052 730 997 730 q 1084 727 1068 730 q 1119 721 1100 725 l 1109 678 q 1074 686 1087 684 q 1051 689 1061 689 q 920 617 976 689 q 835 416 863 545 l 746 0 l 706 0 "},"ğ":{"x_min":4,"x_max":735,"ha":787,"o":"m 301 22 q 526 142 432 22 q 621 433 621 263 q 559 625 621 554 q 395 697 498 697 q 162 575 257 697 q 68 275 68 454 q 129 88 68 154 q 301 22 190 22 m 570 141 q 453 23 523 64 q 297 -17 382 -17 q 95 60 167 -17 q 24 276 24 137 q 129 605 24 474 q 392 736 234 736 q 565 678 495 736 q 650 520 634 620 l 692 718 l 735 718 l 579 -10 q 472 -217 549 -151 q 259 -283 395 -283 q 80 -230 145 -283 q 4 -77 14 -177 l 47 -77 q 109 -200 55 -159 q 262 -242 163 -242 q 446 -184 381 -242 q 540 6 511 -126 l 570 141 m 325 1009 l 359 1009 l 359 993 q 387 914 359 940 q 474 888 415 888 q 578 919 535 888 q 642 1009 621 950 l 675 1009 q 599 880 650 922 q 468 838 547 838 q 359 873 394 838 q 324 981 324 908 q 324 998 324 992 q 325 1009 324 1004 "},"ª":{"x_min":-4,"x_max":457,"ha":532,"o":"m 452 495 q 431 489 440 491 q 414 488 422 488 q 369 502 386 488 q 353 542 353 516 q 355 558 353 546 q 357 574 357 569 q 266 504 314 527 q 162 482 218 482 q 42 521 88 482 q -4 622 -4 560 q 18 697 -4 665 q 84 749 41 729 q 247 779 130 769 q 321 786 295 783 q 405 814 384 794 q 426 887 426 835 q 385 955 426 930 q 275 980 345 980 q 154 949 199 980 q 97 857 110 918 l 62 857 q 133 970 81 933 q 275 1008 186 1008 q 408 976 359 1008 q 457 891 457 945 q 454 860 457 878 q 448 821 452 842 l 392 577 q 389 563 390 571 q 388 549 388 556 q 395 526 388 533 q 418 519 403 519 q 435 520 427 519 q 452 524 444 521 l 452 495 m 406 781 q 355 761 388 769 q 294 753 322 753 q 97 721 163 753 q 31 626 31 689 q 66 541 31 572 q 164 511 102 511 q 305 560 245 511 q 385 696 366 610 l 406 781 "},"Œ":{"x_min":65,"x_max":1393,"ha":1409,"o":"m 692 135 l 844 847 q 734 943 799 911 q 581 975 669 975 q 405 939 481 975 q 260 827 329 904 q 151 636 190 748 q 112 400 112 524 q 198 119 112 221 q 434 17 285 17 q 562 44 500 17 q 692 135 623 72 m 875 999 l 1393 999 l 1384 956 l 913 956 l 825 538 l 1295 538 l 1285 496 l 814 496 l 719 43 l 1260 43 l 1249 0 l 663 0 l 678 70 q 557 -1 617 21 q 430 -25 498 -25 q 163 90 262 -25 q 65 402 65 206 q 109 656 65 535 q 234 864 153 777 q 393 981 308 944 q 587 1018 477 1018 q 746 987 675 1018 q 855 900 816 956 l 875 999 "},"T":{"x_min":97,"x_max":751,"ha":694,"o":"m 209 0 l 412 954 l 97 954 l 107 999 l 751 999 l 741 954 l 459 954 l 256 0 l 209 0 "},"š":{"x_min":-17,"x_max":589,"ha":632,"o":"m -17 222 l 29 222 q 93 73 36 125 q 248 22 150 22 q 409 65 348 22 q 471 176 471 108 q 436 266 471 231 q 286 348 401 301 q 116 444 155 402 q 77 552 77 486 q 143 685 77 634 q 318 736 209 736 q 497 675 431 736 q 564 513 563 615 l 521 513 q 464 647 518 598 q 316 697 410 697 q 175 657 229 697 q 122 553 122 617 q 303 387 122 463 q 325 379 318 382 q 477 289 437 332 q 517 180 517 246 q 445 35 517 91 q 254 -20 373 -20 q 61 41 129 -20 q -17 222 -7 102 m 247 1033 l 284 1033 l 382 852 l 547 1033 l 589 1033 l 407 811 l 354 811 l 247 1033 "},"Þ":{"x_min":11,"x_max":731,"ha":798,"o":"m 222 767 l 120 289 l 291 289 q 455 296 401 289 q 550 322 510 304 q 646 412 611 350 q 681 559 681 475 q 656 661 681 617 q 586 731 632 704 q 502 758 550 750 q 336 767 455 767 l 222 767 m 58 0 l 11 0 l 222 999 l 270 999 l 229 808 l 375 808 q 646 746 561 808 q 731 554 731 685 q 699 409 731 475 q 611 305 668 343 q 504 259 566 273 q 308 246 443 246 l 257 246 l 111 246 l 58 0 "},"j":{"x_min":-182,"x_max":251,"ha":243,"o":"m 173 882 l 198 999 l 251 999 l 226 882 l 173 882 m 10 -116 q -43 -252 -11 -222 q -140 -282 -75 -282 q -164 -281 -155 -282 q -182 -279 -173 -281 l -173 -238 q -169 -238 -172 -238 q -141 -241 -149 -241 q -32 -116 -59 -241 l -31 -113 l 145 721 l 189 721 l 10 -116 "},"1":{"x_min":176.328125,"x_max":525,"ha":724,"o":"m 273 0 l 462 859 q 343 772 418 810 q 176 715 267 734 l 185 755 q 345 818 273 772 q 482 943 418 864 l 525 943 l 316 0 l 273 0 "},"›":{"x_min":11,"x_max":260,"ha":345,"o":"m 115 571 l 260 364 l 69 146 l 11 146 l 204 364 l 65 571 l 115 571 "},"<":{"x_min":179,"x_max":978,"ha":1157,"o":"m 978 755 l 978 707 l 252 414 l 978 120 l 978 74 l 179 400 l 179 428 l 978 755 "},"t":{"x_min":20,"x_max":325,"ha":296,"o":"m 197 0 q 155 -8 175 -5 q 116 -11 134 -11 q 45 12 70 -11 q 20 79 20 35 q 23 119 20 95 q 34 180 26 143 l 140 682 l 30 682 l 38 721 l 148 721 l 190 920 l 233 920 l 190 721 l 325 721 l 316 682 l 181 682 l 75 173 q 64 118 67 138 q 61 83 61 97 q 76 41 61 55 q 123 28 92 28 q 159 31 138 28 q 205 40 179 34 l 197 0 "},"¬":{"x_min":172,"x_max":984,"ha":1157,"o":"m 172 579 l 984 579 l 984 239 l 944 239 l 944 536 l 172 536 l 172 579 "},"ù":{"x_min":32,"x_max":671,"ha":724,"o":"m 671 721 l 518 0 l 474 0 l 504 125 q 383 16 451 53 q 234 -20 315 -20 q 85 27 138 -20 q 32 161 32 75 q 46 269 32 194 l 48 277 l 141 721 l 184 721 l 81 231 q 76 197 78 213 q 75 166 75 180 q 117 56 75 94 q 237 18 159 18 q 438 102 358 18 q 551 349 518 186 l 628 721 l 671 721 m 497 811 l 459 811 l 285 1033 l 344 1033 l 497 811 "},"ï":{"x_min":-8,"x_max":354,"ha":243,"o":"m -8 0 l 144 721 l 189 721 l 34 0 l -8 0 m 275 869 l 291 947 l 354 947 l 337 869 l 275 869 m 60 869 l 76 947 l 139 947 l 123 869 l 60 869 "},"Ò":{"x_min":65,"x_max":951,"ha":1018,"o":"m 581 975 q 407 940 483 975 q 261 827 331 905 q 151 637 190 748 q 112 402 112 526 q 198 120 112 221 q 437 19 284 19 q 770 184 637 19 q 904 610 904 350 q 817 877 904 780 q 581 975 731 975 m 65 404 q 109 655 65 534 q 235 864 154 776 q 391 979 307 941 q 576 1018 476 1018 q 850 908 749 1018 q 951 612 951 799 q 805 154 951 333 q 438 -24 660 -24 q 164 89 263 -24 q 65 404 65 203 m 681 1096 l 643 1096 l 469 1318 l 528 1318 l 681 1096 "},"&":{"x_min":45,"x_max":793,"ha":875,"o":"m 392 610 q 556 701 503 650 q 609 820 609 752 q 567 927 609 886 q 459 968 525 968 q 344 925 389 968 q 299 817 299 882 q 379 631 299 762 q 392 610 387 618 m 628 143 l 372 556 q 157 430 223 498 q 92 265 92 362 q 163 86 92 156 q 345 17 234 17 q 494 47 425 17 q 628 143 563 77 m 717 0 l 652 105 q 508 7 586 40 q 343 -26 431 -26 q 127 54 209 -26 q 45 262 45 134 q 119 453 45 373 q 350 591 193 532 q 274 725 295 676 q 254 811 254 773 q 311 954 254 898 q 461 1010 369 1010 q 600 957 546 1010 q 655 821 655 904 q 595 679 655 740 q 414 574 536 619 l 657 181 q 719 301 697 240 q 748 433 741 363 l 793 433 q 757 275 784 348 q 682 141 729 203 l 770 0 l 717 0 "},"":{"x_min":-27,"x_max":737,"ha":724,"o":"m 516 365 l 142 365 q 141 346 142 358 q 141 329 141 335 q 196 98 141 180 q 354 17 252 17 q 519 82 445 17 q 640 270 594 148 l 687 270 q 546 54 634 129 q 345 -21 458 -21 q 164 72 230 -21 q 98 332 98 166 l 98 365 l -27 365 l -9 398 l 100 398 q 110 478 104 438 q 125 557 116 519 l 8 557 l 25 590 l 134 590 q 282 869 184 766 q 503 973 381 973 q 662 908 599 973 q 737 734 724 844 l 693 734 q 630 881 680 828 q 503 934 580 934 q 309 841 397 934 q 178 590 222 748 l 623 590 l 607 557 l 170 557 q 154 480 160 520 q 145 398 148 440 l 531 398 l 516 365 "},"˝":{"x_min":317,"x_max":654,"ha":694,"o":"m 598 1033 l 654 1033 l 502 811 l 465 811 l 598 1033 m 437 1033 l 493 1033 l 354 811 l 317 811 l 437 1033 "},"I":{"x_min":16,"x_max":276,"ha":290,"o":"m 16 0 l 228 999 l 276 999 l 62 0 l 16 0 "},"G":{"x_min":64,"x_max":903,"ha":971,"o":"m 794 176 q 636 26 726 76 q 436 -24 547 -24 q 163 89 262 -24 q 64 402 64 203 q 109 656 64 535 q 234 865 154 778 q 388 978 303 939 q 568 1017 474 1017 q 803 934 711 1017 q 903 715 896 851 l 858 715 q 769 905 849 834 q 563 977 689 977 q 244 809 377 977 q 111 400 111 641 q 198 118 111 219 q 441 17 286 17 q 705 131 594 17 q 845 437 815 245 l 491 437 l 501 479 l 901 479 l 800 0 l 756 0 l 794 176 "},"`":{"x_min":277,"x_max":489,"ha":694,"o":"m 489 811 l 451 811 l 277 1033 l 336 1033 l 489 811 "},"·":{"x_min":135,"x_max":227,"ha":361,"o":"m 180 427 q 148 439 161 427 q 135 470 135 452 q 148 503 135 489 q 180 517 162 517 q 213 503 199 517 q 227 470 227 489 q 213 439 227 452 q 180 427 199 427 "},"¿":{"x_min":4,"x_max":570,"ha":643,"o":"m 244 464 l 172 416 q 81 322 112 376 q 50 205 50 268 q 112 73 50 125 q 273 22 174 22 q 442 84 379 22 q 525 269 506 146 l 570 269 q 474 54 548 126 q 273 -17 400 -17 q 77 45 150 -17 q 4 210 4 107 q 41 344 4 281 q 149 454 79 407 l 229 504 q 339 607 312 558 q 379 751 367 657 l 419 751 q 373 587 408 647 q 244 464 339 528 m 447 879 l 395 879 l 421 999 l 472 999 l 447 879 "},"ý":{"x_min":-44,"x_max":629,"ha":644,"o":"m 208 0 l 63 721 l 106 721 l 239 56 l 581 721 l 629 721 l 168 -167 q 98 -255 137 -227 q 5 -283 59 -283 q -17 -281 -4 -283 q -44 -278 -29 -280 l -44 -237 q -20 -240 -30 -239 q 0 -242 -9 -242 q 76 -219 44 -242 q 132 -149 107 -197 l 208 0 m 365 811 l 324 811 l 489 1033 l 549 1033 l 365 811 "},"º":{"x_min":17,"x_max":497,"ha":561,"o":"m 288 982 q 122 897 192 982 q 52 693 52 812 q 96 559 52 609 q 215 510 141 510 q 391 593 320 510 q 462 804 462 677 q 416 935 462 888 q 288 982 370 982 m 17 690 q 96 916 17 825 q 295 1008 175 1008 q 442 953 388 1008 q 497 803 497 898 q 417 572 497 662 q 212 482 337 482 q 70 538 124 482 q 17 690 17 595 "},"∞":{"x_min":165,"x_max":992,"ha":1157,"o":"m 596 378 q 683 268 634 304 q 795 233 732 233 q 917 288 868 233 q 966 428 966 344 q 921 568 966 512 q 810 623 877 623 q 699 568 748 623 q 596 378 651 512 m 560 456 q 474 564 524 528 q 362 601 425 601 q 238 546 286 601 q 191 406 191 491 q 235 267 191 323 q 346 211 280 211 q 455 265 407 211 q 560 456 503 319 m 590 352 q 490 213 542 257 q 373 169 437 169 q 225 239 285 169 q 165 415 165 309 q 218 594 165 526 q 358 661 271 661 q 475 617 425 661 q 564 479 524 573 q 665 622 612 578 q 789 667 718 667 q 931 595 871 667 q 992 419 992 523 q 938 241 992 309 q 796 174 884 174 q 683 215 731 174 q 590 352 636 255 "},";":{"x_min":-17,"x_max":275,"ha":395,"o":"m 194 554 l 219 673 l 275 673 l 249 554 l 194 554 m -17 -145 l 106 122 l 165 122 l 39 -145 l -17 -145 "},"6":{"x_min":52,"x_max":663,"ha":724,"o":"m 100 432 q 211 574 137 523 q 379 626 285 626 q 563 550 491 626 q 635 355 635 474 q 550 82 635 187 q 330 -22 465 -22 q 124 72 197 -22 q 52 343 52 167 q 81 585 52 467 q 165 796 111 702 q 284 924 215 881 q 437 968 353 968 q 598 906 539 968 q 663 734 656 845 l 621 733 q 564 881 612 831 q 433 931 517 931 q 214 796 305 931 q 100 432 124 662 m 589 343 q 530 520 589 453 q 378 587 472 587 q 186 498 263 587 q 108 273 108 409 q 169 90 108 160 q 329 20 230 20 q 514 112 440 20 q 589 343 589 204 "},"n":{"x_min":-10,"x_max":629,"ha":724,"o":"m -10 0 l 143 721 l 185 721 l 157 586 q 278 695 210 658 q 426 732 345 732 q 575 684 522 732 q 629 551 629 637 q 614 443 629 517 l 612 435 l 520 0 l 478 0 l 579 481 q 584 515 582 499 q 586 546 586 531 q 544 656 586 618 q 425 695 503 695 q 224 610 304 695 q 109 363 144 526 l 33 0 l -10 0 "},"¤":{"x_min":-27,"x_max":737,"ha":724,"o":"m 516 365 l 142 365 q 141 346 142 358 q 141 329 141 335 q 196 98 141 180 q 354 17 252 17 q 519 82 445 17 q 640 270 594 148 l 687 270 q 546 54 634 129 q 345 -21 458 -21 q 164 72 230 -21 q 98 332 98 166 l 98 365 l -27 365 l -9 398 l 100 398 q 110 478 104 438 q 125 557 116 519 l 8 557 l 25 590 l 134 590 q 282 869 184 766 q 503 973 381 973 q 662 908 599 973 q 737 734 724 844 l 693 734 q 630 881 680 828 q 503 934 580 934 q 309 841 397 934 q 178 590 222 748 l 623 590 l 607 557 l 170 557 q 154 480 160 520 q 145 398 148 440 l 531 398 l 516 365 "},"∂":{"x_min":97,"x_max":597,"ha":688,"o":"m 506 383 q 516 474 513 426 q 520 584 520 522 q 496 786 520 726 q 417 847 472 847 q 355 791 389 847 q 283 735 321 735 q 249 749 262 735 q 236 782 236 762 q 274 849 236 821 q 369 878 313 878 q 535 782 473 878 q 597 523 597 686 q 511 134 597 287 q 298 -18 425 -18 q 153 50 210 -18 q 97 229 97 118 q 167 436 97 352 q 341 521 238 521 q 447 487 407 521 q 506 383 487 453 m 484 307 q 450 436 484 391 q 355 481 417 481 q 223 396 273 481 q 174 173 174 312 q 206 52 174 93 q 302 11 239 11 q 432 95 381 11 q 484 307 484 179 "},"p":{"x_min":-69,"x_max":701,"ha":786,"o":"m 423 695 q 199 574 293 695 q 104 284 104 453 q 165 92 104 163 q 330 21 227 21 q 562 141 468 21 q 657 442 657 262 q 595 628 657 562 q 423 695 534 695 m 75 197 l -27 -286 l -69 -286 l 143 721 l 185 721 l 155 575 q 271 692 201 651 q 427 734 342 734 q 629 657 557 734 q 701 441 701 580 q 595 112 701 243 q 333 -18 490 -18 q 160 39 229 -18 q 75 197 90 97 "},"‡":{"x_min":-7,"x_max":665,"ha":694,"o":"m 183 -144 l 251 173 l -7 173 l 1 214 l 259 214 l 353 656 l 95 656 l 104 697 l 362 697 l 426 999 l 469 999 l 405 697 l 665 697 l 656 656 l 397 656 l 302 214 l 561 214 l 553 173 l 294 173 l 226 -144 l 183 -144 "},"√":{"x_min":33,"x_max":848,"ha":848,"o":"m 734 1096 l 848 1096 l 848 1061 l 757 1061 l 353 -28 l 340 -28 l 115 592 l 42 568 l 33 592 l 178 644 l 372 119 l 734 1096 "},"S":{"x_min":40,"x_max":745,"ha":785,"o":"m 85 305 q 155 92 85 164 q 360 20 225 20 q 552 84 480 20 q 624 257 624 148 q 576 392 624 340 q 384 501 529 445 q 205 610 257 551 q 153 755 153 668 q 233 945 153 873 q 444 1018 313 1018 q 666 942 587 1018 q 745 728 745 866 l 745 724 l 699 724 l 699 733 q 633 913 699 849 q 449 977 567 977 q 267 917 334 977 q 200 758 200 858 q 424 534 200 627 q 461 518 448 523 q 622 409 573 470 q 671 257 671 348 q 585 52 671 127 q 352 -22 500 -22 q 121 59 203 -22 q 40 290 40 141 l 40 305 l 85 305 "},"/":{"x_min":-7,"x_max":393,"ha":386,"o":"m -7 -115 l 345 997 l 393 997 l 37 -115 l -7 -115 "},"y":{"x_min":-44,"x_max":629,"ha":644,"o":"m 208 0 l 63 721 l 106 721 l 239 56 l 581 721 l 629 721 l 168 -167 q 98 -255 137 -227 q 5 -283 59 -283 q -17 -281 -4 -283 q -44 -278 -29 -280 l -44 -237 q -20 -240 -30 -239 q 0 -242 -9 -242 q 76 -219 44 -242 q 132 -149 107 -197 l 208 0 "},"≈":{"x_min":121,"x_max":1038,"ha":1157,"o":"m 1038 389 l 1038 341 q 901 265 966 290 q 775 240 835 240 q 572 288 700 240 q 383 337 444 337 q 269 312 328 337 q 121 226 209 287 l 121 276 q 255 351 190 326 q 383 377 321 377 q 580 329 452 377 q 775 281 708 281 q 891 305 831 281 q 1038 389 951 329 m 1038 602 l 1038 552 q 901 476 966 501 q 775 452 835 452 q 572 500 700 452 q 383 548 444 548 q 267 523 327 548 q 121 439 207 499 l 121 487 q 255 563 190 538 q 383 588 321 588 q 580 540 452 588 q 775 492 708 492 q 889 516 830 492 q 1038 602 949 540 "},"g":{"x_min":4,"x_max":735,"ha":787,"o":"m 301 22 q 526 142 432 22 q 621 433 621 263 q 559 625 621 554 q 395 697 498 697 q 162 575 257 697 q 68 275 68 454 q 129 88 68 154 q 301 22 190 22 m 570 141 q 453 23 523 64 q 297 -17 382 -17 q 95 60 167 -17 q 24 276 24 137 q 129 605 24 474 q 392 736 234 736 q 565 678 495 736 q 650 520 634 620 l 692 718 l 735 718 l 579 -10 q 472 -217 549 -151 q 259 -283 395 -283 q 80 -230 145 -283 q 4 -77 14 -177 l 47 -77 q 109 -200 55 -159 q 262 -242 163 -242 q 446 -184 381 -242 q 540 6 511 -126 l 570 141 "},"²":{"x_min":4,"x_max":443,"ha":478,"o":"m 4 380 q 45 488 8 440 q 165 585 83 536 q 231 622 188 599 q 351 698 320 670 q 398 754 382 724 q 414 814 414 785 q 374 902 414 867 q 275 937 335 937 q 160 898 204 937 q 103 787 115 859 l 74 787 q 141 915 88 869 q 275 961 194 961 q 396 920 349 961 q 443 815 443 879 q 245 601 443 712 l 230 594 q 84 493 125 533 q 39 405 44 452 l 373 405 l 368 380 l 4 380 "},"ë":{"x_min":32,"x_max":653,"ha":739,"o":"m 82 360 q 79 317 80 338 q 78 271 78 296 q 136 90 78 160 q 289 21 195 21 q 453 75 380 21 q 565 226 527 129 l 612 226 q 486 47 571 113 q 295 -18 401 -18 q 103 61 174 -18 q 32 279 32 141 q 134 603 32 472 q 391 734 237 734 q 583 654 514 734 q 653 431 653 574 q 651 396 653 414 q 649 360 650 379 l 82 360 m 91 399 l 608 399 q 609 414 608 403 q 610 429 610 424 q 551 626 610 557 q 383 695 492 695 q 202 614 282 695 q 91 399 122 534 m 496 869 l 512 947 l 575 947 l 558 869 l 496 869 m 281 869 l 297 947 l 360 947 l 344 869 l 281 869 "},"–":{"x_min":-35,"x_max":665,"ha":694,"o":"m -35 345 l -29 373 l 665 373 l 659 345 l -35 345 "},"ƒ":{"x_min":-17,"x_max":629,"ha":724,"o":"m 324 532 l 213 532 l 223 574 l 334 574 l 378 787 q 438 922 398 880 q 548 965 479 965 q 587 960 567 965 q 629 948 608 956 l 622 910 q 581 921 599 918 q 551 925 564 925 q 469 891 498 925 q 420 769 439 858 l 378 574 l 503 574 l 494 532 l 370 532 l 234 -105 q 174 -241 214 -199 q 65 -284 134 -284 q 24 -279 46 -284 q -17 -266 3 -275 l -8 -229 q 31 -239 14 -236 q 62 -243 48 -243 q 144 -210 115 -243 q 193 -87 173 -177 l 324 532 "},"J":{"x_min":7,"x_max":655,"ha":648,"o":"m 61 274 q 54 224 56 245 q 52 185 52 203 q 97 63 52 108 q 218 19 142 19 q 369 75 317 19 q 460 311 422 131 l 606 999 l 655 999 l 500 274 q 401 44 465 111 q 220 -22 336 -22 q 66 33 125 -22 q 7 178 7 89 q 10 224 7 200 q 19 274 13 248 l 61 274 "},"Ã":{"x_min":-86,"x_max":717,"ha":787,"o":"m 180 375 l 602 375 l 504 937 l 180 375 m -86 0 l 492 999 l 539 999 l 712 0 l 667 0 l 608 330 l 155 330 l -35 0 l -86 0 m 717 1243 q 671 1170 699 1194 q 605 1146 644 1146 q 584 1147 594 1146 q 565 1151 574 1148 l 513 1167 q 491 1172 502 1170 q 469 1174 480 1174 q 427 1161 445 1174 q 397 1123 409 1148 l 367 1123 q 410 1197 383 1172 q 475 1222 438 1222 q 498 1219 486 1222 q 525 1213 511 1217 l 575 1198 q 592 1195 583 1196 q 612 1194 602 1194 q 655 1205 639 1194 q 685 1243 672 1217 l 717 1243 "},"©":{"x_min":85,"x_max":1072,"ha":1157,"o":"m 802 626 l 748 626 q 688 719 733 685 q 579 753 644 753 q 434 682 487 753 q 382 486 382 612 q 435 296 382 367 q 579 225 489 225 q 696 264 647 225 q 757 367 745 303 l 807 367 q 733 231 799 284 q 573 179 667 179 q 390 262 459 179 q 322 487 322 346 q 392 713 322 629 q 583 798 463 798 q 731 750 670 798 q 802 626 792 702 m 577 937 q 405 904 485 937 q 262 807 325 871 q 162 658 197 741 q 128 488 128 576 q 162 318 128 399 q 261 172 197 236 q 408 72 326 107 q 577 38 489 38 q 748 73 665 38 q 898 173 831 108 q 995 316 961 235 q 1029 488 1029 396 q 995 661 1029 579 q 898 805 961 742 q 751 903 833 870 q 577 937 670 937 m 577 982 q 768 945 679 982 q 928 837 857 908 q 1035 677 998 767 q 1072 488 1072 588 q 1035 297 1072 386 q 930 140 999 209 q 766 31 858 69 q 577 -7 675 -7 q 390 30 480 -7 q 230 139 301 67 q 122 299 160 209 q 85 488 85 389 q 122 676 85 586 q 230 838 160 766 q 388 945 299 909 q 577 982 476 982 "},"˘":{"x_min":277,"x_max":628,"ha":694,"o":"m 278 1009 l 312 1009 l 312 993 q 340 914 312 940 q 427 888 368 888 q 531 919 488 888 q 595 1009 574 950 l 628 1009 q 552 880 603 922 q 421 838 500 838 q 312 873 347 838 q 277 981 277 908 q 277 998 277 992 q 278 1009 277 1004 "},"≥":{"x_min":180,"x_max":976,"ha":1157,"o":"m 180 81 l 976 81 l 976 39 l 180 39 l 180 81 m 180 788 l 976 511 l 976 475 l 180 199 l 180 245 l 907 493 l 180 741 l 180 788 "},"D":{"x_min":11,"x_max":874,"ha":942,"o":"m 65 41 l 229 41 q 469 59 385 41 q 615 121 552 78 q 771 316 716 191 q 827 603 827 442 q 793 780 827 706 q 693 898 760 853 q 585 942 648 929 q 403 956 521 956 l 259 956 l 65 41 m 11 0 l 222 999 l 371 999 q 620 978 542 999 q 754 908 698 957 q 844 778 814 855 q 874 592 874 700 q 823 323 874 447 q 679 116 772 199 q 514 26 608 53 q 189 0 420 0 l 11 0 "},"ÿ":{"x_min":-44,"x_max":629,"ha":644,"o":"m 208 0 l 63 721 l 106 721 l 239 56 l 581 721 l 629 721 l 168 -167 q 98 -255 137 -227 q 5 -283 59 -283 q -17 -281 -4 -283 q -44 -278 -29 -280 l -44 -237 q -20 -240 -30 -239 q 0 -242 -9 -242 q 76 -219 44 -242 q 132 -149 107 -197 l 208 0 m 475 869 l 491 947 l 554 947 l 537 869 l 475 869 m 260 869 l 276 947 l 339 947 l 323 869 l 260 869 "},"ł":{"x_min":-25.59375,"x_max":259.59375,"ha":241,"o":"m -10 0 l 88 467 l -7 411 l -25 443 l 99 515 l 201 999 l 244 999 l 145 535 l 241 591 l 259 559 l 134 487 l 33 0 l -10 0 "},"Ł":{"x_min":-37.296875,"x_max":618,"ha":692,"o":"m 11 0 l 99 423 l -18 353 l -37 387 l 111 473 l 222 999 l 269 999 l 164 498 l 491 687 l 511 655 l 152 448 l 66 41 l 618 41 l 608 0 l 11 0 "},"$":{"x_min":35,"x_max":690,"ha":724,"o":"m 357 528 l 443 938 q 422 939 432 939 q 398 940 411 940 q 242 882 304 940 q 180 735 180 824 q 221 621 180 670 q 357 528 262 573 m 223 -117 l 245 -9 q 89 83 142 9 q 35 278 36 156 l 80 279 q 126 110 80 175 q 255 31 173 44 l 348 484 q 186 591 237 532 q 136 732 136 651 q 212 909 136 840 q 410 979 289 979 l 434 979 q 441 978 437 979 q 452 977 446 978 l 464 1037 l 508 1037 l 493 970 q 639 894 589 954 q 690 737 690 835 l 690 733 l 650 733 q 607 867 647 819 q 485 933 567 915 l 395 509 q 574 398 519 458 q 630 256 630 338 q 546 57 630 131 q 321 -16 463 -16 l 288 -16 l 268 -117 l 223 -117 m 296 26 q 311 25 304 26 q 318 25 318 25 q 514 86 444 25 q 584 255 584 147 q 540 368 584 320 q 386 465 497 415 l 296 26 "},"w":{"x_min":33,"x_max":933,"ha":940,"o":"m 148 0 l 33 721 l 73 721 l 177 73 l 463 721 l 494 721 l 598 73 l 890 721 l 933 721 l 608 0 l 572 0 l 469 637 l 185 0 l 148 0 "},"\\":{"x_min":82,"x_max":325,"ha":386,"o":"m 282 -115 l 82 997 l 127 997 l 325 -115 l 282 -115 "},"∫":{"x_min":28,"x_max":564,"ha":595,"o":"m 478 1047 q 540 1026 516 1047 q 564 973 564 1005 q 548 930 564 947 q 508 914 532 914 q 437 951 454 914 q 416 989 421 989 q 337 565 341 989 q 335 369 336 440 q 277 -112 327 26 q 116 -252 226 -252 q 53 -231 78 -252 q 28 -182 28 -210 q 46 -135 28 -153 q 93 -117 64 -117 q 155 -156 138 -117 q 179 -195 172 -195 q 259 338 253 -195 q 260 403 260 381 q 314 898 263 749 q 478 1047 365 1047 "},"Ì":{"x_min":16,"x_max":340,"ha":290,"o":"m 16 0 l 228 999 l 276 999 l 62 0 l 16 0 m 340 1096 l 302 1096 l 128 1318 l 187 1318 l 340 1096 "},"Ç":{"x_min":65,"x_max":901,"ha":940,"o":"m 856 293 q 685 58 798 140 q 422 -24 573 -24 q 162 91 259 -24 q 65 402 65 207 q 110 655 65 533 q 235 866 155 776 q 384 977 301 939 q 561 1015 467 1015 q 809 928 717 1015 q 901 693 901 841 l 901 684 l 857 684 l 857 689 q 777 898 857 820 q 565 976 697 976 q 244 809 377 976 q 112 401 112 642 q 197 120 112 222 q 433 18 283 18 q 657 91 557 18 q 807 293 756 164 l 856 293 m 247 -279 l 259 -242 q 345 -260 316 -256 q 399 -265 375 -265 q 472 -241 444 -265 q 501 -181 501 -218 q 472 -129 501 -145 q 381 -114 444 -114 l 354 -114 l 393 0 l 421 0 l 396 -82 l 411 -82 q 508 -107 475 -82 q 541 -180 541 -132 q 501 -268 541 -235 q 395 -302 462 -302 q 330 -296 366 -302 q 247 -279 293 -290 "},"C":{"x_min":65,"x_max":901,"ha":940,"o":"m 856 293 q 685 58 798 140 q 422 -24 573 -24 q 162 91 259 -24 q 65 402 65 207 q 110 655 65 533 q 235 866 155 776 q 384 977 301 939 q 561 1015 467 1015 q 809 928 717 1015 q 901 693 901 841 l 901 684 l 857 684 l 857 689 q 777 898 857 820 q 565 976 697 976 q 244 809 377 976 q 112 401 112 642 q 197 120 112 222 q 433 18 283 18 q 657 91 557 18 q 807 293 756 164 l 856 293 "},"!":{"x_min":77,"x_max":348,"ha":427,"o":"m 143 238 l 300 997 l 348 997 l 177 238 l 143 238 m 77 0 l 103 123 l 163 123 l 136 0 l 77 0 "},"ç":{"x_min":22,"x_max":654,"ha":732,"o":"m 628 237 q 492 47 582 113 q 283 -18 403 -18 q 93 63 165 -18 q 22 281 22 145 q 128 605 22 474 q 395 736 235 736 q 579 669 510 736 q 654 486 648 602 l 608 486 q 545 641 602 585 q 393 697 488 697 q 163 576 257 697 q 69 283 69 456 q 128 91 69 162 q 285 21 187 21 q 462 78 383 21 q 580 237 540 136 l 628 237 m 111 -279 l 123 -242 q 209 -260 180 -256 q 263 -265 239 -265 q 336 -241 308 -265 q 365 -181 365 -218 q 336 -129 365 -145 q 245 -114 308 -114 l 218 -114 l 257 0 l 285 0 l 260 -82 l 275 -82 q 372 -107 339 -82 q 405 -180 405 -132 q 365 -268 405 -235 q 259 -302 326 -302 q 194 -296 230 -302 q 111 -279 157 -290 "},"È":{"x_min":11,"x_max":739,"ha":746,"o":"m 11 0 l 222 999 l 739 999 l 730 956 l 259 956 l 170 536 l 641 536 l 631 494 l 162 494 l 66 43 l 604 43 l 594 0 l 11 0 m 568 1096 l 530 1096 l 356 1318 l 415 1318 l 568 1096 "},"X":{"x_min":-58,"x_max":742,"ha":721,"o":"m -58 0 l 328 519 l 91 999 l 143 999 l 360 556 l 685 999 l 742 999 l 381 514 l 638 0 l 587 0 l 352 476 l -2 0 l -58 0 "},"ô":{"x_min":22,"x_max":662,"ha":749,"o":"m 383 695 q 160 574 254 695 q 67 283 67 453 q 127 92 67 164 q 285 21 187 21 q 521 140 426 21 q 616 440 616 260 q 555 628 616 561 q 383 695 494 695 m 22 280 q 128 603 22 473 q 394 734 234 734 q 590 655 518 734 q 662 441 662 577 q 555 111 662 240 q 283 -18 448 -18 q 94 63 166 -18 q 22 280 22 145 m 594 811 l 556 811 l 458 991 l 293 811 l 251 811 l 434 1033 l 487 1033 l 594 811 "},"đ":{"x_min":22,"x_max":855.0625,"ha":786,"o":"m 299 19 q 523 139 429 19 q 618 430 618 260 q 557 622 618 551 q 392 694 495 694 q 160 572 254 694 q 66 271 66 451 q 127 85 66 151 q 299 19 188 19 m 537 0 l 567 138 q 451 20 521 61 q 295 -20 380 -20 q 93 57 165 -20 q 22 273 22 134 q 127 602 22 471 q 389 733 232 733 q 562 674 493 733 q 647 517 632 616 l 709 808 l 435 808 l 442 844 l 717 844 l 749 999 l 792 999 l 758 844 l 855 844 l 846 808 l 752 808 l 579 0 l 537 0 "},"}":{"x_min":123,"x_max":573,"ha":694,"o":"m 123 1002 l 145 1002 q 318 950 272 1002 q 365 742 365 898 l 365 580 q 404 426 365 471 q 538 382 443 382 q 559 382 552 382 q 573 383 566 382 l 573 335 q 557 335 566 335 q 542 336 547 336 q 404 291 444 336 q 365 139 365 247 l 365 -22 q 318 -228 365 -177 q 145 -280 272 -280 l 123 -280 l 123 -233 l 149 -233 q 276 -197 243 -233 q 309 -48 309 -162 l 309 115 q 338 285 309 234 q 440 358 367 336 q 338 433 367 381 q 309 603 309 484 l 309 768 q 275 919 309 883 q 148 955 242 955 l 123 955 l 123 1002 "},"â":{"x_min":-5,"x_max":609,"ha":708,"o":"m 604 0 q 574 -7 585 -5 q 553 -10 562 -10 q 493 10 515 -10 q 472 67 472 30 q 476 101 472 76 q 478 113 478 109 q 356 14 421 47 q 216 -18 292 -18 q 56 38 117 -18 q -5 182 -5 94 q 25 290 -5 244 q 113 365 55 337 q 324 406 173 392 q 429 417 393 412 q 541 457 514 428 q 569 560 569 487 q 515 658 569 623 q 367 694 461 694 q 207 650 266 694 q 129 518 148 606 l 84 518 q 179 680 109 627 q 367 733 249 733 q 544 688 480 733 q 609 567 609 644 q 606 519 609 545 q 598 468 603 494 l 524 119 q 523 115 524 118 q 518 77 518 89 q 528 43 518 54 q 560 33 538 33 q 581 35 569 33 q 604 41 592 37 l 604 0 m 542 410 q 475 381 519 393 q 393 370 431 370 q 128 324 217 370 q 40 187 40 278 q 88 68 40 112 q 218 24 136 24 q 408 95 326 24 q 516 288 489 166 l 542 410 m 567 811 l 529 811 l 431 991 l 266 811 l 224 811 l 407 1033 l 460 1033 l 567 811 "},"ø":{"x_min":-16.953125,"x_max":698.296875,"ha":749,"o":"m 109 119 l 557 627 q 485 678 525 661 q 394 695 445 695 q 161 575 253 695 q 69 268 69 455 q 79 182 69 220 q 109 119 90 144 m 577 599 l 130 91 q 201 38 162 55 q 291 21 241 21 q 521 140 427 21 q 616 438 616 260 q 606 529 616 489 q 577 599 597 569 m -16 -23 l 77 84 q 37 166 50 121 q 24 269 24 211 q 128 603 24 472 q 394 734 232 734 q 499 716 454 734 q 585 660 544 699 l 673 760 l 698 736 l 607 632 q 647 546 633 593 q 661 446 661 498 q 555 111 661 240 q 283 -18 450 -18 q 184 1 231 -18 q 99 58 138 21 l 8 -45 l -16 -23 "},"Ä":{"x_min":-86,"x_max":712,"ha":787,"o":"m 180 375 l 602 375 l 504 937 l 180 375 m -86 0 l 492 999 l 539 999 l 712 0 l 667 0 l 608 330 l 155 330 l -35 0 l -86 0 m 611 1154 l 627 1232 l 690 1232 l 673 1154 l 611 1154 m 396 1154 l 412 1232 l 475 1232 l 459 1154 l 396 1154 "},"‰":{"x_min":56,"x_max":1493,"ha":1549,"o":"m 1069 189 q 1130 339 1069 277 q 1280 402 1192 402 q 1430 339 1368 402 q 1493 189 1493 277 q 1430 40 1493 102 q 1280 -22 1367 -22 q 1131 40 1193 -22 q 1069 189 1069 102 m 1112 190 q 1161 70 1112 119 q 1280 21 1210 21 q 1400 70 1350 21 q 1450 190 1450 119 q 1400 309 1450 260 q 1280 359 1350 359 q 1161 309 1210 359 q 1112 190 1112 260 m 531 189 q 593 339 531 277 q 743 402 655 402 q 893 339 831 402 q 955 189 955 277 q 892 40 955 102 q 743 -22 830 -22 q 593 40 655 -22 q 531 189 531 102 m 574 188 q 623 69 574 118 q 743 21 672 21 q 862 69 813 21 q 912 188 912 118 q 862 309 912 259 q 743 359 813 359 q 623 308 672 359 q 574 188 574 258 m 203 -22 l 756 999 l 807 999 l 249 -22 l 203 -22 m 56 786 q 117 936 56 874 q 266 999 179 999 q 417 936 355 999 q 480 786 480 874 q 417 637 480 699 q 266 575 354 575 q 117 637 179 575 q 56 786 56 699 m 99 786 q 148 667 99 716 q 268 618 198 618 q 387 667 338 618 q 437 786 437 716 q 387 906 437 856 q 268 956 337 956 q 148 906 197 956 q 99 786 99 857 "},"N":{"x_min":11,"x_max":925,"ha":936,"o":"m 11 0 l 222 999 l 278 999 l 677 47 l 878 999 l 925 999 l 712 0 l 653 0 l 255 942 l 55 0 l 11 0 "},"—":{"x_min":-35,"x_max":1359,"ha":1389,"o":"m -29 373 l 1359 373 l 1353 345 l -35 345 l -29 373 "},"2":{"x_min":4,"x_max":671,"ha":724,"o":"m 4 0 q 69 182 12 102 q 251 342 126 262 q 348 401 284 363 q 531 528 484 483 q 602 622 578 572 q 627 723 627 672 q 568 869 627 811 q 416 927 509 927 q 244 862 311 927 q 156 677 177 798 l 113 677 q 213 890 133 814 q 416 966 293 966 q 600 898 529 966 q 671 723 671 830 q 367 365 671 552 l 350 354 q 127 188 188 255 q 60 41 67 120 l 566 41 l 557 0 l 4 0 "},"ü":{"x_min":32,"x_max":671,"ha":724,"o":"m 671 721 l 518 0 l 474 0 l 504 125 q 383 16 451 53 q 234 -20 315 -20 q 85 27 138 -20 q 32 161 32 75 q 46 269 32 194 l 48 277 l 141 721 l 184 721 l 81 231 q 76 197 78 213 q 75 166 75 180 q 117 56 75 94 q 237 18 159 18 q 438 102 358 18 q 551 349 518 186 l 628 721 l 671 721 m 508 869 l 524 947 l 587 947 l 570 869 l 508 869 m 293 869 l 309 947 l 372 947 l 356 869 l 293 869 "},"":{"x_min":-4,"x_max":554,"ha":547,"o":"m 298 0 l 511 999 l 554 999 l 341 0 l 298 0 m -4 0 l 140 682 l 34 682 l 42 721 l 148 721 l 176 849 q 228 968 193 934 q 327 1002 262 1002 q 355 1001 342 1002 q 380 997 368 1000 l 371 956 q 351 959 361 958 q 330 961 341 961 q 255 934 281 961 q 213 829 230 908 l 191 721 l 322 721 l 313 682 l 183 682 l 38 0 l -4 0 "},"Ó":{"x_min":65,"x_max":951,"ha":1018,"o":"m 581 975 q 407 940 483 975 q 261 827 331 905 q 151 637 190 748 q 112 402 112 526 q 198 120 112 221 q 437 19 284 19 q 770 184 637 19 q 904 610 904 350 q 817 877 904 780 q 581 975 731 975 m 65 404 q 109 655 65 534 q 235 864 154 776 q 391 979 307 941 q 576 1018 476 1018 q 850 908 749 1018 q 951 612 951 799 q 805 154 951 333 q 438 -24 660 -24 q 164 89 263 -24 q 65 404 65 203 m 582 1096 l 541 1096 l 706 1318 l 766 1318 l 582 1096 "},"˜":{"x_min":256,"x_max":606,"ha":694,"o":"m 606 958 q 560 885 588 909 q 494 861 533 861 q 473 862 483 861 q 454 866 463 863 l 402 882 q 380 887 391 885 q 358 889 369 889 q 316 876 334 889 q 286 838 298 863 l 256 838 q 299 912 272 887 q 364 937 327 937 q 387 934 375 937 q 414 928 400 932 l 464 913 q 481 910 472 911 q 501 909 491 909 q 544 920 528 909 q 574 958 561 932 l 606 958 "},"ˇ":{"x_min":278,"x_max":620,"ha":694,"o":"m 278 1033 l 315 1033 l 413 852 l 578 1033 l 620 1033 l 438 811 l 385 811 l 278 1033 "},"Ÿ":{"x_min":94,"x_max":750,"ha":718,"o":"m 247 0 l 338 433 l 94 999 l 142 999 l 366 479 l 695 999 l 750 999 l 385 427 l 294 0 l 247 0 m 565 1154 l 581 1232 l 644 1232 l 627 1154 l 565 1154 m 350 1154 l 366 1232 l 429 1232 l 413 1154 l 350 1154 "},"€":{"x_min":-27,"x_max":737,"ha":724,"o":"m 516 365 l 142 365 q 141 346 142 358 q 141 329 141 335 q 196 98 141 180 q 354 17 252 17 q 519 82 445 17 q 640 270 594 148 l 687 270 q 546 54 634 129 q 345 -21 458 -21 q 164 72 230 -21 q 98 332 98 166 l 98 365 l -27 365 l -9 398 l 100 398 q 110 478 104 438 q 125 557 116 519 l 8 557 l 25 590 l 134 590 q 282 869 184 766 q 503 973 381 973 q 662 908 599 973 q 737 734 724 844 l 693 734 q 630 881 680 828 q 503 934 580 934 q 309 841 397 934 q 178 590 222 748 l 623 590 l 607 557 l 170 557 q 154 480 160 520 q 145 398 148 440 l 531 398 l 516 365 "},"ß":{"x_min":-10,"x_max":615,"ha":673,"o":"m -10 0 l 142 715 q 234 939 176 875 q 395 1004 291 1004 q 555 947 496 1004 q 615 793 615 890 q 561 628 615 694 q 416 551 507 562 q 528 468 489 525 q 567 330 567 411 q 479 82 567 181 q 255 -17 391 -17 q 235 -15 246 -17 q 211 -10 224 -13 l 222 33 q 253 29 243 30 q 271 28 263 28 q 449 115 376 28 q 522 328 522 203 q 462 478 522 424 q 298 533 403 533 l 291 533 l 299 575 q 505 629 438 575 q 572 798 572 684 q 524 921 572 876 q 395 966 477 966 q 262 910 310 966 q 185 724 213 854 l 31 0 l -10 0 "},"s":{"x_min":-17,"x_max":564,"ha":632,"o":"m -17 222 l 29 222 q 93 73 36 125 q 248 22 150 22 q 409 65 348 22 q 471 176 471 108 q 436 266 471 231 q 286 348 401 301 q 116 444 155 402 q 77 552 77 486 q 143 685 77 634 q 318 736 209 736 q 497 675 431 736 q 564 513 563 615 l 521 513 q 464 647 518 598 q 316 697 410 697 q 175 657 229 697 q 122 553 122 617 q 303 387 122 463 q 325 379 318 382 q 477 289 437 332 q 517 180 517 246 q 445 35 517 91 q 254 -20 373 -20 q 61 41 129 -20 q -17 222 -7 102 "},"?":{"x_min":72,"x_max":638,"ha":643,"o":"m 196 119 l 248 119 l 221 0 l 170 0 l 196 119 m 399 533 l 469 579 q 561 673 530 619 q 593 791 593 727 q 530 923 593 871 q 368 975 467 975 q 199 912 262 975 q 118 727 137 849 l 72 727 q 168 943 94 871 q 368 1015 242 1015 q 564 952 490 1015 q 638 786 638 890 q 601 649 638 711 q 492 542 564 588 l 425 499 q 306 392 337 443 q 262 245 275 340 l 222 245 q 269 412 233 351 q 399 533 305 473 "},"c":{"x_min":22,"x_max":654,"ha":732,"o":"m 628 237 q 492 47 582 113 q 283 -18 403 -18 q 93 63 165 -18 q 22 281 22 145 q 128 605 22 474 q 395 736 235 736 q 579 669 510 736 q 654 486 648 602 l 608 486 q 545 641 602 585 q 393 697 488 697 q 163 576 257 697 q 69 283 69 456 q 128 91 69 162 q 285 21 187 21 q 462 78 383 21 q 580 237 540 136 l 628 237 "},"¶":{"x_min":67,"x_max":629,"ha":694,"o":"m 336 1003 l 629 1003 l 629 964 l 539 964 l 539 0 l 499 0 l 499 964 l 366 964 l 366 0 l 326 0 l 326 530 q 137 599 207 535 q 67 766 67 663 q 140 937 67 872 q 336 1003 213 1003 "},"•":{"x_min":208,"x_max":609,"ha":819,"o":"m 208 516 q 266 657 208 599 q 409 716 325 716 q 550 657 491 716 q 609 516 609 598 q 549 374 609 433 q 407 315 490 315 q 266 373 324 315 q 208 516 208 432 "},"(":{"x_min":93,"x_max":476,"ha":400,"o":"m 175 -286 q 113 -40 134 -159 q 93 198 93 78 q 174 611 93 419 q 429 997 255 803 l 476 997 q 217 603 298 797 q 136 184 136 409 q 155 -32 136 82 q 217 -286 175 -146 l 175 -286 "},"◊":{"x_min":4,"x_max":682,"ha":686,"o":"m 343 955 l 81 401 l 343 -158 l 604 401 l 343 955 m 343 1121 l 682 401 l 343 -324 l 4 401 l 343 1121 "},"­":{"x_min":36,"x_max":374,"ha":476,"o":"m 36 339 l 46 378 l 374 378 l 364 339 l 36 339 "},":":{"x_min":61,"x_max":264,"ha":395,"o":"m 181 551 l 207 673 l 264 673 l 239 551 l 181 551 m 61 0 l 87 122 l 146 122 l 119 0 l 61 0 "},"Û":{"x_min":77,"x_max":916,"ha":926,"o":"m 218 999 l 266 999 l 132 364 q 123 311 126 338 q 121 255 121 283 q 192 82 121 146 q 384 18 264 18 q 610 88 530 18 q 725 320 690 159 l 868 999 l 916 999 l 768 307 q 640 56 732 137 q 392 -24 548 -24 q 161 50 245 -24 q 77 255 77 125 q 80 325 77 290 q 90 394 83 359 l 218 999 m 757 1096 l 719 1096 l 621 1276 l 456 1096 l 414 1096 l 597 1318 l 650 1318 l 757 1096 "},"V":{"x_min":72,"x_max":777,"ha":701,"o":"m 234 0 l 72 999 l 118 999 l 269 62 l 726 999 l 777 999 l 287 0 l 234 0 "}," ":{"x_min":0,"x_max":0,"ha":724},"@":{"x_min":86,"x_max":1303,"ha":1389,"o":"m 809 214 q 725 121 777 155 q 613 87 673 87 q 454 142 509 87 q 400 306 400 198 q 491 566 400 459 q 712 674 583 674 q 822 644 778 674 q 887 554 866 614 l 928 646 l 973 646 l 879 275 q 866 217 869 232 q 863 193 863 201 q 885 146 863 163 q 948 130 907 130 q 1044 152 995 130 q 1130 214 1092 174 q 1216 355 1185 272 q 1247 526 1247 437 q 1109 824 1247 710 q 749 938 971 938 q 540 905 637 938 q 365 810 443 873 q 202 605 258 724 q 147 344 147 487 q 297 -11 147 122 q 699 -146 448 -146 q 922 -112 810 -146 q 1127 -15 1034 -78 l 1143 -38 q 936 -148 1045 -111 q 706 -185 826 -185 q 472 -154 577 -185 q 288 -62 368 -123 q 136 118 186 15 q 86 354 86 222 q 119 561 86 464 q 219 738 153 658 q 452 917 315 856 q 755 979 589 979 q 960 949 862 979 q 1127 866 1057 919 q 1258 713 1213 799 q 1303 525 1303 626 q 1260 319 1303 413 q 1140 163 1218 226 q 1040 107 1093 127 q 934 88 987 88 q 838 112 870 88 q 806 183 806 136 q 807 194 806 188 q 809 214 807 200 m 875 489 q 818 594 860 558 q 711 631 776 631 q 533 536 605 631 q 462 301 462 441 q 502 175 462 220 q 613 130 542 130 q 750 179 691 130 q 831 314 809 229 l 875 489 "},"¾":{"x_min":21,"x_max":1107,"ha":1143,"o":"m 991 157 l 1069 486 l 733 157 l 991 157 m 954 0 l 986 135 l 693 135 l 699 157 l 1079 528 l 1107 528 l 1018 157 l 1090 157 l 1084 135 l 1012 135 l 979 0 l 954 0 m 222 -23 l 868 971 l 921 971 l 274 -23 l 222 -23 m 87 831 q 146 926 99 891 q 263 961 193 961 q 379 925 335 961 q 424 831 424 889 q 387 741 424 778 q 289 694 351 704 q 368 651 340 683 q 396 569 396 618 q 340 451 396 497 q 194 406 284 406 q 68 443 113 406 q 21 549 23 481 l 48 549 q 89 461 51 492 q 194 430 128 430 q 319 469 271 430 q 368 571 368 508 q 324 655 368 625 q 202 686 280 686 q 190 685 198 686 q 179 684 183 684 l 183 706 l 196 706 q 344 737 293 706 q 395 830 395 769 q 359 909 395 879 q 264 940 323 940 q 163 910 204 940 q 113 831 123 881 l 87 831 "},"i":{"x_min":-8,"x_max":251,"ha":243,"o":"m -8 0 l 144 721 l 189 721 l 34 0 l -8 0 m 173 882 l 198 999 l 251 999 l 226 882 l 173 882 "},"≤":{"x_min":179,"x_max":977,"ha":1157,"o":"m 179 81 l 977 81 l 977 39 l 179 39 l 179 81 m 977 788 l 977 741 l 248 493 l 977 245 l 977 199 l 179 475 l 179 511 l 977 788 "},"m":{"x_min":-10,"x_max":1048,"ha":1143,"o":"m -10 0 l 142 721 l 185 721 l 157 586 q 273 694 207 656 q 410 732 339 732 q 536 690 487 732 q 594 575 585 648 q 727 693 661 655 q 862 732 792 732 q 996 682 945 732 q 1048 551 1048 633 q 1044 501 1048 529 q 1031 435 1040 474 l 937 0 l 895 0 l 997 480 q 1003 516 1001 500 q 1005 546 1005 532 q 965 655 1005 615 q 856 695 925 695 q 673 608 751 695 q 561 363 595 521 l 485 0 l 442 0 l 545 481 q 550 515 548 499 q 552 546 552 531 q 512 654 552 613 q 407 695 473 695 q 222 607 300 695 q 109 363 143 520 l 33 0 l -10 0 "},"ž":{"x_min":-53,"x_max":589,"ha":604,"o":"m -53 0 l -42 47 l 530 679 l 59 679 l 66 721 l 589 721 l 582 676 l 5 40 l 498 40 l 493 0 l -53 0 m 233 1033 l 270 1033 l 368 852 l 533 1033 l 575 1033 l 393 811 l 340 811 l 233 1033 "},"á":{"x_min":-5,"x_max":609,"ha":708,"o":"m 604 0 q 574 -7 585 -5 q 553 -10 562 -10 q 493 10 515 -10 q 472 67 472 30 q 476 101 472 76 q 478 113 478 109 q 356 14 421 47 q 216 -18 292 -18 q 56 38 117 -18 q -5 182 -5 94 q 25 290 -5 244 q 113 365 55 337 q 324 406 173 392 q 429 417 393 412 q 541 457 514 428 q 569 560 569 487 q 515 658 569 623 q 367 694 461 694 q 207 650 266 694 q 129 518 148 606 l 84 518 q 179 680 109 627 q 367 733 249 733 q 544 688 480 733 q 609 567 609 644 q 606 519 609 545 q 598 468 603 494 l 524 119 q 523 115 524 118 q 518 77 518 89 q 528 43 518 54 q 560 33 538 33 q 581 35 569 33 q 604 41 592 37 l 604 0 m 542 410 q 475 381 519 393 q 393 370 431 370 q 128 324 217 370 q 40 187 40 278 q 88 68 40 112 q 218 24 136 24 q 408 95 326 24 q 516 288 489 166 l 542 410 m 370 811 l 329 811 l 494 1033 l 554 1033 l 370 811 "},"×":{"x_min":214,"x_max":942,"ha":1157,"o":"m 244 778 l 578 444 l 910 778 l 942 747 l 608 413 l 942 80 l 910 50 l 578 383 l 244 50 l 214 80 l 547 413 l 214 747 l 244 778 "},"İ":{"x_min":16,"x_max":324,"ha":290,"o":"m 16 0 l 228 999 l 276 999 l 62 0 l 16 0 m 241 1153 l 259 1235 l 324 1235 l 307 1153 l 241 1153 "},"K":{"x_min":11,"x_max":860,"ha":765,"o":"m 11 0 l 222 999 l 269 999 l 150 434 l 796 999 l 860 999 l 390 590 l 729 0 l 676 0 l 356 559 l 136 368 l 58 0 l 11 0 "},"7":{"x_min":136,"x_max":727,"ha":724,"o":"m 152 0 q 344 445 213 215 q 668 902 476 676 l 136 902 l 144 943 l 727 943 l 718 899 q 404 468 538 698 q 198 0 271 237 l 152 0 "},"¨":{"x_min":285,"x_max":579,"ha":694,"o":"m 500 869 l 516 947 l 579 947 l 562 869 l 500 869 m 285 869 l 301 947 l 364 947 l 348 869 l 285 869 "},"Y":{"x_min":94,"x_max":750,"ha":718,"o":"m 247 0 l 338 433 l 94 999 l 142 999 l 366 479 l 695 999 l 750 999 l 385 427 l 294 0 l 247 0 "},"E":{"x_min":11,"x_max":739,"ha":746,"o":"m 11 0 l 222 999 l 739 999 l 730 956 l 259 956 l 170 536 l 641 536 l 631 494 l 162 494 l 66 43 l 604 43 l 594 0 l 11 0 "},"Ô":{"x_min":65,"x_max":951,"ha":1018,"o":"m 581 975 q 407 940 483 975 q 261 827 331 905 q 151 637 190 748 q 112 402 112 526 q 198 120 112 221 q 437 19 284 19 q 770 184 637 19 q 904 610 904 350 q 817 877 904 780 q 581 975 731 975 m 65 404 q 109 655 65 534 q 235 864 154 776 q 391 979 307 941 q 576 1018 476 1018 q 850 908 749 1018 q 951 612 951 799 q 805 154 951 333 q 438 -24 660 -24 q 164 89 263 -24 q 65 404 65 203 m 779 1096 l 741 1096 l 643 1276 l 478 1096 l 436 1096 l 619 1318 l 672 1318 l 779 1096 "},"Ï":{"x_min":16,"x_max":430,"ha":290,"o":"m 16 0 l 228 999 l 276 999 l 62 0 l 16 0 m 351 1154 l 367 1232 l 430 1232 l 413 1154 l 351 1154 m 136 1154 l 152 1232 l 215 1232 l 199 1154 l 136 1154 "},"‹":{"x_min":20,"x_max":269,"ha":345,"o":"m 163 146 l 20 354 l 210 571 l 269 571 l 75 354 l 214 146 l 163 146 "},"±":{"x_min":172,"x_max":986,"ha":1157,"o":"m 172 90 l 986 90 l 986 47 l 172 47 l 172 90 m 558 779 l 600 779 l 600 538 l 986 538 l 986 495 l 600 495 l 600 254 l 558 254 l 558 495 l 172 495 l 172 538 l 558 538 l 558 779 "},"ì":{"x_min":-8,"x_max":264,"ha":243,"o":"m -8 0 l 144 721 l 189 721 l 34 0 l -8 0 m 264 811 l 226 811 l 52 1033 l 111 1033 l 264 811 "},"|":{"x_min":322,"x_max":372,"ha":694,"o":"m 322 1061 l 372 1061 l 372 -328 l 322 -328 l 322 1061 "},"§":{"x_min":50,"x_max":617.359375,"ha":694,"o":"m 422 208 q 529 277 491 233 q 568 376 568 321 q 547 443 568 410 q 471 523 526 475 l 271 700 q 163 636 199 674 q 128 549 128 599 q 150 476 128 512 q 231 384 172 440 l 422 208 m 51 113 l 94 113 q 93 101 93 107 q 93 85 93 96 q 133 -45 93 0 q 251 -91 174 -91 q 382 -48 332 -91 q 433 61 433 -6 q 410 141 433 102 q 336 228 387 180 l 198 355 q 110 456 137 411 q 83 545 83 500 q 123 654 83 607 q 242 729 164 701 q 218 784 226 758 q 211 836 211 810 q 268 967 211 913 q 412 1021 326 1021 q 561 967 506 1021 q 617 823 617 914 q 617 805 617 814 q 616 788 616 796 l 575 788 l 575 798 q 535 934 575 889 q 416 980 496 980 q 300 939 343 980 q 257 834 257 899 q 275 767 257 798 q 349 689 293 737 l 495 562 q 588 462 565 500 q 612 379 612 423 q 569 257 612 309 q 442 172 527 205 q 467 117 459 145 q 476 60 476 90 q 414 -78 476 -23 q 255 -133 352 -133 q 102 -78 155 -133 q 50 79 50 -23 q 50 100 50 92 q 51 113 50 107 "},"q":{"x_min":22,"x_max":734,"ha":786,"o":"m 567 138 q 451 20 521 61 q 295 -20 380 -20 q 93 57 165 -20 q 22 273 22 134 q 127 602 22 471 q 389 733 232 733 q 562 674 493 733 q 647 517 632 616 l 691 721 l 734 721 l 519 -286 l 477 -286 l 567 138 m 299 19 q 524 139 429 19 q 618 430 618 260 q 557 622 618 551 q 392 694 495 694 q 160 572 254 694 q 66 271 66 451 q 127 85 66 151 q 299 19 188 19 "},"b":{"x_min":-10,"x_max":701,"ha":786,"o":"m 423 695 q 199 574 293 695 q 104 284 104 453 q 165 92 104 163 q 330 21 227 21 q 562 141 468 21 q 657 442 657 262 q 595 628 657 562 q 423 695 534 695 m -10 0 l 202 999 l 245 999 l 154 575 q 271 692 201 651 q 427 734 342 734 q 629 657 557 734 q 701 441 701 580 q 595 112 701 243 q 333 -18 490 -18 q 159 39 229 -18 q 74 197 90 97 l 33 0 l -10 0 "},"®":{"x_min":85,"x_max":1072,"ha":1157,"o":"m 449 736 l 449 517 l 577 517 q 720 541 682 517 q 759 629 759 566 q 715 710 759 684 q 578 736 672 736 l 449 736 m 389 785 l 594 785 q 772 746 716 785 q 829 625 829 708 q 790 525 829 565 q 688 477 751 485 l 818 207 l 748 207 l 624 468 l 449 468 l 449 207 l 389 207 l 389 785 m 577 937 q 405 903 485 937 q 261 807 324 870 q 162 659 197 741 q 128 488 128 577 q 162 319 128 400 q 262 172 197 237 q 409 72 327 107 q 577 38 490 38 q 749 73 666 38 q 899 173 833 108 q 996 316 963 236 q 1029 488 1029 395 q 995 659 1029 578 q 896 805 961 741 q 750 903 831 870 q 577 937 669 937 m 577 982 q 768 945 678 982 q 928 838 857 908 q 1035 678 998 768 q 1072 488 1072 588 q 1036 298 1072 386 q 930 141 1000 210 q 766 31 857 69 q 577 -7 675 -7 q 390 30 480 -7 q 230 139 301 67 q 122 299 160 209 q 85 488 85 389 q 122 676 85 586 q 230 838 160 766 q 388 945 299 909 q 577 982 476 982 "},"L":{"x_min":11,"x_max":618,"ha":692,"o":"m 11 0 l 222 999 l 269 999 l 66 41 l 618 41 l 608 0 l 11 0 "}," ":{"x_min":0,"x_max":0,"ha":361},"∑":{"x_min":0,"x_max":825,"ha":838,"o":"m 26 999 l 825 999 l 825 946 l 88 946 l 597 380 l 52 -214 l 813 -214 l 813 -266 l 0 -266 l 0 -190 l 521 383 l 26 937 l 26 999 "},"À":{"x_min":-86,"x_max":712,"ha":787,"o":"m 180 375 l 602 375 l 504 937 l 180 375 m -86 0 l 492 999 l 539 999 l 712 0 l 667 0 l 608 330 l 155 330 l -35 0 l -86 0 m 600 1096 l 562 1096 l 388 1318 l 447 1318 l 600 1096 "},"+":{"x_min":172,"x_max":986,"ha":1157,"o":"m 558 827 l 600 827 l 600 434 l 986 434 l 986 393 l 600 393 l 600 0 l 558 0 l 558 393 l 172 393 l 172 434 l 558 434 l 558 827 "},"½":{"x_min":110.890625,"x_max":1109,"ha":1143,"o":"m 690 0 q 730 101 694 57 q 845 192 766 146 q 911 228 868 205 q 1021 295 992 271 q 1065 348 1050 320 q 1081 405 1081 376 q 1044 488 1081 456 q 949 520 1007 520 q 840 484 882 520 q 786 380 798 448 l 758 380 q 822 499 771 456 q 949 542 872 542 q 1064 504 1020 542 q 1109 405 1109 466 q 915 203 1109 309 l 907 198 q 767 106 805 144 q 725 24 729 68 l 1042 24 l 1038 0 l 690 0 m 222 -23 l 868 971 l 921 971 l 274 -23 l 222 -23 m 172 418 l 291 900 q 216 851 263 872 q 110 818 168 829 l 116 842 q 217 876 171 851 q 304 946 262 902 l 330 946 l 199 418 l 172 418 "},"Ë":{"x_min":11,"x_max":739,"ha":746,"o":"m 11 0 l 222 999 l 739 999 l 730 956 l 259 956 l 170 536 l 641 536 l 631 494 l 162 494 l 66 43 l 604 43 l 594 0 l 11 0 m 579 1154 l 595 1232 l 658 1232 l 641 1154 l 579 1154 m 364 1154 l 380 1232 l 443 1232 l 427 1154 l 364 1154 "},"'":{"x_min":69,"x_max":116,"ha":186,"o":"m 69 973 l 116 973 l 116 598 l 69 598 l 69 973 "},"Š":{"x_min":40,"x_max":745,"ha":785,"o":"m 85 305 q 155 92 85 164 q 360 20 225 20 q 552 84 480 20 q 624 257 624 148 q 576 392 624 340 q 384 501 529 445 q 205 610 257 551 q 153 755 153 668 q 233 945 153 873 q 444 1018 313 1018 q 666 942 587 1018 q 745 728 745 866 l 745 724 l 699 724 l 699 733 q 633 913 699 849 q 449 977 567 977 q 267 917 334 977 q 200 758 200 858 q 424 534 200 627 q 461 518 448 523 q 622 409 573 470 q 671 257 671 348 q 585 52 671 127 q 352 -22 500 -22 q 121 59 203 -22 q 40 290 40 141 l 40 305 l 85 305 m 376 1318 l 413 1318 l 511 1137 l 676 1318 l 718 1318 l 536 1096 l 483 1096 l 376 1318 "},"˛":{"x_min":110,"x_max":286,"ha":694,"o":"m 258 0 q 172 -89 198 -50 q 146 -164 146 -128 q 167 -221 146 -203 q 238 -239 189 -239 l 286 -239 l 277 -277 l 245 -277 q 143 -250 177 -277 q 110 -172 110 -224 q 137 -87 110 -129 q 223 0 164 -46 l 258 0 "},"ð":{"x_min":22,"x_max":662,"ha":749,"o":"m 383 683 q 160 563 254 683 q 67 278 67 444 q 128 89 67 159 q 292 20 189 20 q 521 139 427 20 q 616 432 616 258 q 554 616 616 550 q 383 683 493 683 m 595 627 q 532 758 568 701 q 446 861 496 815 l 265 783 l 253 819 l 414 890 q 350 941 382 918 q 284 984 318 965 l 303 1018 q 381 969 342 997 q 459 908 419 942 l 631 982 l 646 946 l 489 880 q 618 683 575 790 q 662 451 662 576 q 556 111 662 241 q 283 -18 451 -18 q 93 62 165 -18 q 22 275 22 142 q 127 591 22 462 q 386 720 232 720 q 507 697 457 720 q 595 627 557 675 "},"ş":{"x_min":-17,"x_max":564,"ha":632,"o":"m -17 222 l 29 222 q 93 73 36 125 q 248 22 150 22 q 409 65 348 22 q 471 176 471 108 q 436 266 471 231 q 286 348 401 301 q 116 444 155 402 q 77 552 77 486 q 143 685 77 634 q 318 736 209 736 q 497 675 431 736 q 564 513 563 615 l 521 513 q 464 647 518 598 q 316 697 410 697 q 175 657 229 697 q 122 553 122 617 q 303 387 122 463 q 325 379 318 382 q 477 289 437 332 q 517 180 517 246 q 445 35 517 91 q 254 -20 373 -20 q 61 41 129 -20 q -17 222 -7 102 m 48 -279 l 60 -242 q 146 -260 117 -256 q 200 -265 176 -265 q 273 -241 245 -265 q 302 -181 302 -218 q 273 -129 302 -145 q 182 -114 245 -114 l 155 -114 l 194 0 l 222 0 l 197 -82 l 212 -82 q 309 -107 276 -82 q 342 -180 342 -132 q 302 -268 342 -235 q 196 -302 263 -302 q 131 -296 167 -302 q 48 -279 94 -290 "},"ı":{"x_min":-8,"x_max":189,"ha":243,"o":"m -8 0 l 144 721 l 189 721 l 34 0 l -8 0 "},"Ć":{"x_min":65,"x_max":901,"ha":940,"o":"m 856 293 q 685 58 798 140 q 422 -24 573 -24 q 162 91 259 -24 q 65 402 65 207 q 110 655 65 533 q 235 866 155 776 q 384 977 301 939 q 561 1015 467 1015 q 809 928 717 1015 q 901 693 901 841 l 901 684 l 857 684 l 857 689 q 777 898 857 820 q 565 976 697 976 q 244 809 377 976 q 112 401 112 642 q 197 120 112 222 q 433 18 283 18 q 657 91 557 18 q 807 293 756 164 l 856 293 m 565 1096 l 524 1096 l 689 1318 l 749 1318 l 565 1096 "},"ä":{"x_min":-5,"x_max":609,"ha":708,"o":"m 604 0 q 574 -7 585 -5 q 553 -10 562 -10 q 493 10 515 -10 q 472 67 472 30 q 476 101 472 76 q 478 113 478 109 q 356 14 421 47 q 216 -18 292 -18 q 56 38 117 -18 q -5 182 -5 94 q 25 290 -5 244 q 113 365 55 337 q 324 406 173 392 q 429 417 393 412 q 541 457 514 428 q 569 560 569 487 q 515 658 569 623 q 367 694 461 694 q 207 650 266 694 q 129 518 148 606 l 84 518 q 179 680 109 627 q 367 733 249 733 q 544 688 480 733 q 609 567 609 644 q 606 519 609 545 q 598 468 603 494 l 524 119 q 523 115 524 118 q 518 77 518 89 q 528 43 518 54 q 560 33 538 33 q 581 35 569 33 q 604 41 592 37 l 604 0 m 542 410 q 475 381 519 393 q 393 370 431 370 q 128 324 217 370 q 40 187 40 278 q 88 68 40 112 q 218 24 136 24 q 408 95 326 24 q 516 288 489 166 l 542 410 m 480 869 l 496 947 l 559 947 l 542 869 l 480 869 m 265 869 l 281 947 l 344 947 l 328 869 l 265 869 "},"¹":{"x_min":115.890625,"x_max":345,"ha":478,"o":"m 180 380 l 305 896 q 224 844 274 866 q 115 810 174 821 l 121 834 q 227 872 179 845 q 317 946 275 900 l 345 946 l 207 380 l 180 380 "},"£":{"x_min":10,"x_max":691,"ha":724,"o":"m 26 -6 l 10 36 q 138 188 98 113 q 178 351 178 263 q 176 395 178 370 q 171 455 174 420 l 24 455 l 31 494 l 164 494 q 155 593 158 553 q 153 658 153 633 q 232 881 153 796 q 440 966 312 966 q 624 903 558 966 q 691 729 691 841 q 689 702 691 719 q 686 662 688 685 l 642 662 q 644 690 643 674 q 645 738 645 706 q 590 876 645 827 q 436 926 535 926 q 264 851 330 926 q 198 658 198 777 q 201 595 198 635 q 212 494 205 555 l 432 494 l 424 455 l 216 455 q 223 394 221 419 q 225 354 225 369 q 196 211 225 279 q 106 75 167 143 q 133 82 119 80 q 161 85 147 85 q 310 54 222 85 q 432 24 397 24 q 500 35 464 24 q 598 78 536 46 l 586 25 q 505 -10 543 1 q 431 -22 467 -22 q 303 8 388 -22 q 163 39 218 39 q 93 28 125 39 q 26 -6 61 17 "},"W":{"x_min":138,"x_max":1155,"ha":1071,"o":"m 215 0 l 138 999 l 180 999 l 253 76 l 618 999 l 665 999 l 771 88 l 1108 999 l 1155 999 l 785 0 l 739 0 l 632 916 l 268 0 l 215 0 "},"Ğ":{"x_min":64,"x_max":903,"ha":971,"o":"m 794 176 q 636 26 726 76 q 436 -24 547 -24 q 163 89 262 -24 q 64 402 64 203 q 109 656 64 535 q 234 865 154 778 q 388 978 303 939 q 568 1017 474 1017 q 803 934 711 1017 q 903 715 896 851 l 858 715 q 769 905 849 834 q 563 977 689 977 q 244 809 377 977 q 111 400 111 641 q 198 118 111 219 q 441 17 286 17 q 705 131 594 17 q 845 437 815 245 l 491 437 l 501 479 l 901 479 l 800 0 l 756 0 l 794 176 m 470 1294 l 504 1294 l 504 1278 q 532 1199 504 1225 q 619 1173 560 1173 q 723 1204 680 1173 q 787 1294 766 1235 l 820 1294 q 744 1165 795 1207 q 613 1123 692 1123 q 504 1158 539 1123 q 469 1266 469 1193 q 469 1283 469 1277 q 470 1294 469 1289 "},"v":{"x_min":26,"x_max":594,"ha":591,"o":"m 26 721 l 67 721 l 203 54 l 546 721 l 594 721 l 219 0 l 173 0 l 26 721 "},">":{"x_min":179,"x_max":978,"ha":1157,"o":"m 179 755 l 978 428 l 978 400 l 179 74 l 179 120 l 902 414 l 179 707 l 179 755 "},"û":{"x_min":32,"x_max":671,"ha":724,"o":"m 671 721 l 518 0 l 474 0 l 504 125 q 383 16 451 53 q 234 -20 315 -20 q 85 27 138 -20 q 32 161 32 75 q 46 269 32 194 l 48 277 l 141 721 l 184 721 l 81 231 q 76 197 78 213 q 75 166 75 180 q 117 56 75 94 q 237 18 159 18 q 438 102 358 18 q 551 349 518 186 l 628 721 l 671 721 m 595 811 l 557 811 l 459 991 l 294 811 l 252 811 l 435 1033 l 488 1033 l 595 811 "},"Ð":{"x_min":0,"x_max":874,"ha":942,"o":"m 65 41 l 229 41 q 469 59 385 41 q 615 121 552 78 q 771 316 716 191 q 827 603 827 442 q 793 780 827 706 q 693 898 760 853 q 585 942 648 929 q 403 956 521 956 l 259 956 l 173 552 l 494 552 l 486 515 l 167 515 l 65 41 m 11 0 l 119 515 l 0 515 l 8 552 l 127 552 l 222 999 l 371 999 q 620 978 542 999 q 754 908 698 957 q 844 778 814 855 q 874 592 874 700 q 823 323 874 447 q 679 116 772 199 q 514 26 608 53 q 189 0 420 0 l 11 0 "},"r":{"x_min":-5,"x_max":408,"ha":386,"o":"m -5 0 l 147 721 l 190 721 l 165 606 q 241 698 195 666 q 341 730 286 730 q 373 727 357 730 q 408 721 389 725 l 398 678 q 363 686 376 684 q 340 689 350 689 q 209 617 265 689 q 124 416 152 545 l 35 0 l -5 0 "},"Č":{"x_min":65,"x_max":901,"ha":940,"o":"m 856 293 q 685 58 798 140 q 422 -24 573 -24 q 162 91 259 -24 q 65 402 65 207 q 110 655 65 533 q 235 866 155 776 q 384 977 301 939 q 561 1015 467 1015 q 809 928 717 1015 q 901 693 901 841 l 901 684 l 857 684 l 857 689 q 777 898 857 820 q 565 976 697 976 q 244 809 377 976 q 112 401 112 642 q 197 120 112 222 q 433 18 283 18 q 657 91 557 18 q 807 293 756 164 l 856 293 m 453 1318 l 490 1318 l 588 1137 l 753 1318 l 795 1318 l 613 1096 l 560 1096 l 453 1318 "},"x":{"x_min":-81,"x_max":548,"ha":562,"o":"m -32 0 l -81 0 l 220 375 l 25 721 l 71 721 l 248 411 l 493 721 l 548 721 l 268 372 l 480 0 l 432 0 l 241 339 l -32 0 "},"è":{"x_min":32,"x_max":653,"ha":739,"o":"m 82 360 q 79 317 80 338 q 78 271 78 296 q 136 90 78 160 q 289 21 195 21 q 453 75 380 21 q 565 226 527 129 l 612 226 q 486 47 571 113 q 295 -18 401 -18 q 103 61 174 -18 q 32 279 32 141 q 134 603 32 472 q 391 734 237 734 q 583 654 514 734 q 653 431 653 574 q 651 396 653 414 q 649 360 650 379 l 82 360 m 91 399 l 608 399 q 609 414 608 403 q 610 429 610 424 q 551 626 610 557 q 383 695 492 695 q 202 614 282 695 q 91 399 122 534 m 485 811 l 447 811 l 273 1033 l 332 1033 l 485 811 "},"Ø":{"x_min":15.484375,"x_max":986.59375,"ha":1018,"o":"m 15 -38 l 146 112 q 86 242 106 169 q 66 404 66 315 q 110 657 66 536 q 234 864 154 777 q 391 979 305 941 q 578 1018 476 1018 q 729 992 663 1018 q 846 915 795 967 l 957 1043 l 986 1016 l 873 884 q 932 757 912 830 q 952 595 952 684 q 804 152 952 329 q 438 -24 657 -24 q 286 2 353 -24 q 171 81 219 28 l 44 -64 l 15 -38 m 175 146 l 817 881 q 715 951 773 928 q 582 975 656 975 q 407 940 482 975 q 261 827 331 905 q 151 636 189 748 q 113 397 113 525 q 127 257 113 317 q 175 146 142 197 m 842 849 l 200 116 q 304 42 244 67 q 437 18 363 18 q 771 183 637 18 q 905 601 905 348 q 889 743 905 679 q 842 849 873 806 "},"÷":{"x_min":172,"x_max":985,"ha":1157,"o":"m 579 246 q 622 228 604 246 q 640 185 640 211 q 622 141 640 160 q 579 123 604 123 q 535 140 553 123 q 517 183 517 158 q 535 227 517 209 q 579 246 554 246 m 172 434 l 985 434 l 985 393 l 172 393 l 172 434 m 579 704 q 622 685 604 704 q 640 641 640 667 q 622 598 640 616 q 579 581 604 581 q 534 598 552 581 q 517 641 517 616 q 535 685 517 666 q 579 704 554 704 "},"h":{"x_min":-10,"x_max":629,"ha":724,"o":"m -10 0 l 202 999 l 245 999 l 157 586 q 278 695 210 658 q 426 732 345 732 q 575 684 522 732 q 629 551 629 637 q 614 443 629 517 l 612 435 l 520 0 l 478 0 l 579 481 q 584 515 582 499 q 586 546 586 531 q 544 656 586 618 q 425 695 503 695 q 224 610 304 695 q 109 363 144 526 l 33 0 l -10 0 "},".":{"x_min":46,"x_max":129,"ha":361,"o":"m 46 0 l 71 122 l 129 122 l 104 0 l 46 0 "},"f":{"x_min":-4,"x_max":381,"ha":296,"o":"m -4 0 l 140 682 l 34 682 l 42 721 l 148 721 l 176 849 q 228 968 194 934 q 328 1002 262 1002 q 355 1000 342 1002 q 381 995 368 999 l 372 956 q 352 959 361 958 q 330 961 342 961 q 256 934 281 961 q 213 829 230 908 l 192 721 l 322 721 l 314 682 l 183 682 l 38 0 l -4 0 "},"“":{"x_min":159,"x_max":503,"ha":529,"o":"m 503 728 l 456 728 l 359 999 l 406 999 l 503 728 m 305 728 l 256 728 l 159 999 l 207 999 l 305 728 "},"A":{"x_min":-86,"x_max":712,"ha":787,"o":"m 180 375 l 602 375 l 504 937 l 180 375 m -86 0 l 492 999 l 539 999 l 712 0 l 667 0 l 608 330 l 155 330 l -35 0 l -86 0 "},"O":{"x_min":65,"x_max":951,"ha":1018,"o":"m 581 975 q 407 940 483 975 q 261 827 331 905 q 151 637 190 748 q 112 402 112 526 q 198 120 112 221 q 437 19 284 19 q 770 184 637 19 q 904 610 904 350 q 817 877 904 780 q 581 975 731 975 m 65 404 q 109 655 65 534 q 235 864 154 776 q 391 979 307 941 q 576 1018 476 1018 q 850 908 749 1018 q 951 612 951 799 q 805 154 951 333 q 438 -24 660 -24 q 164 89 263 -24 q 65 404 65 203 "},"π":{"x_min":14,"x_max":755,"ha":783,"o":"m 278 687 l 134 0 l 86 0 l 232 687 l 172 687 q 93 660 122 687 q 56 582 64 634 l 14 582 q 69 693 30 662 q 201 724 107 724 l 755 724 l 749 687 l 611 687 l 520 246 q 506 172 512 207 q 501 121 501 138 q 523 56 501 77 q 590 35 545 35 q 613 37 603 35 q 636 43 624 39 l 628 1 q 597 -5 609 -3 q 577 -8 586 -8 q 490 24 522 -8 q 457 112 457 57 q 466 201 457 146 q 496 357 474 255 l 566 687 l 278 687 "},"‘":{"x_min":158,"x_max":304,"ha":329,"o":"m 304 728 l 255 728 l 158 999 l 206 999 l 304 728 "},"3":{"x_min":34,"x_max":672,"ha":724,"o":"m 139 737 q 233 907 158 845 q 419 970 308 970 q 602 906 532 970 q 672 740 672 843 q 614 578 672 644 q 459 494 557 511 q 584 416 540 475 q 629 269 629 357 q 539 59 629 140 q 308 -22 450 -22 q 108 45 181 -22 q 34 234 36 113 l 76 234 q 143 75 82 131 q 309 20 204 20 q 506 90 430 20 q 583 272 583 160 q 514 424 583 370 q 320 478 445 478 q 303 476 315 478 q 285 475 291 475 l 292 515 l 313 515 q 546 571 466 515 q 627 736 627 628 q 570 879 627 825 q 421 933 513 933 q 261 880 326 933 q 180 737 196 827 l 139 737 "},"9":{"x_min":45,"x_max":656,"ha":724,"o":"m 607 514 q 494 371 568 422 q 326 320 419 320 q 143 396 215 320 q 72 590 72 473 q 156 863 72 759 q 376 968 241 968 q 583 873 510 968 q 656 603 656 778 q 626 361 656 479 q 542 150 596 243 q 423 21 491 65 q 269 -22 354 -22 q 109 39 167 -22 q 45 213 51 100 l 85 213 q 141 65 94 115 q 272 16 188 16 q 492 150 400 16 q 607 514 583 284 m 118 601 q 176 426 118 492 q 328 360 234 360 q 521 448 443 360 q 598 672 598 537 q 537 855 598 785 q 376 925 475 925 q 191 832 265 925 q 118 601 118 740 "},"l":{"x_min":-10,"x_max":244,"ha":241,"o":"m -10 0 l 201 999 l 244 999 l 33 0 l -10 0 "},"":{"x_min":-4,"x_max":560,"ha":547,"o":"m 482 880 l 507 999 l 560 999 l 534 880 l 482 880 m 298 0 l 453 721 l 496 721 l 343 0 l 298 0 m -4 0 l 140 682 l 34 682 l 42 721 l 148 721 l 176 849 q 228 967 194 933 q 327 1002 262 1002 q 355 1001 342 1002 q 380 997 368 1000 l 371 956 q 351 959 361 958 q 330 961 341 961 q 256 934 281 961 q 213 829 230 908 l 192 721 l 322 721 l 314 682 l 183 682 l 38 0 l -4 0 "},"4":{"x_min":10,"x_max":666,"ha":724,"o":"m 482 279 l 606 867 l 74 279 l 482 279 m 423 0 l 474 241 l 10 241 l 20 279 l 623 943 l 666 943 l 524 279 l 640 279 l 631 241 l 516 241 l 464 0 l 423 0 "},"Ü":{"x_min":77,"x_max":916,"ha":926,"o":"m 218 999 l 266 999 l 132 364 q 123 311 126 338 q 121 255 121 283 q 192 82 121 146 q 384 18 264 18 q 610 88 530 18 q 725 320 690 159 l 868 999 l 916 999 l 768 307 q 640 56 732 137 q 392 -24 548 -24 q 161 50 245 -24 q 77 255 77 125 q 80 325 77 290 q 90 394 83 359 l 218 999 m 670 1154 l 686 1232 l 749 1232 l 732 1154 l 670 1154 m 455 1154 l 471 1232 l 534 1232 l 518 1154 l 455 1154 "},"à":{"x_min":-5,"x_max":609,"ha":708,"o":"m 604 0 q 574 -7 585 -5 q 553 -10 562 -10 q 493 10 515 -10 q 472 67 472 30 q 476 101 472 76 q 478 113 478 109 q 356 14 421 47 q 216 -18 292 -18 q 56 38 117 -18 q -5 182 -5 94 q 25 290 -5 244 q 113 365 55 337 q 324 406 173 392 q 429 417 393 412 q 541 457 514 428 q 569 560 569 487 q 515 658 569 623 q 367 694 461 694 q 207 650 266 694 q 129 518 148 606 l 84 518 q 179 680 109 627 q 367 733 249 733 q 544 688 480 733 q 609 567 609 644 q 606 519 609 545 q 598 468 603 494 l 524 119 q 523 115 524 118 q 518 77 518 89 q 528 43 518 54 q 560 33 538 33 q 581 35 569 33 q 604 41 592 37 l 604 0 m 542 410 q 475 381 519 393 q 393 370 431 370 q 128 324 217 370 q 40 187 40 278 q 88 68 40 112 q 218 24 136 24 q 408 95 326 24 q 516 288 489 166 l 542 410 m 469 811 l 431 811 l 257 1033 l 316 1033 l 469 811 "},"ó":{"x_min":22,"x_max":662,"ha":749,"o":"m 383 695 q 160 574 254 695 q 67 283 67 453 q 127 92 67 164 q 285 21 187 21 q 521 140 426 21 q 616 440 616 260 q 555 628 616 561 q 383 695 494 695 m 22 280 q 128 603 22 473 q 394 734 234 734 q 590 655 518 734 q 662 441 662 577 q 555 111 662 240 q 283 -18 448 -18 q 94 63 166 -18 q 22 280 22 145 m 397 811 l 356 811 l 521 1033 l 581 1033 l 397 811 "}}}
